<svg width="229" height="229" viewBox="0 0 229 229" fill="none" xmlns="http://www.w3.org/2000/svg">
<g clip-path="url(#clip0_82_188)">
<path opacity="0.29" d="M182.529 178.482C220.047 140.868 220.047 79.8843 182.529 42.2705C145.01 4.65677 84.1811 4.65678 46.6628 42.2705C9.14447 79.8843 9.14447 140.868 46.6628 178.482C84.1811 216.096 145.01 216.096 182.529 178.482Z" fill="#DBC4FF"/>
<path d="M201.997 150.923C201.997 151.546 201.492 152.052 200.87 152.052C200.248 152.052 199.743 151.547 199.743 150.923C199.743 150.298 200.248 149.793 200.87 149.793C201.492 149.793 201.997 150.299 201.997 150.923Z" fill="#DBC4FF"/>
<path d="M202.084 145.403C202.084 146.027 201.579 146.533 200.957 146.533C200.335 146.533 199.83 146.027 199.83 145.403C199.83 144.779 200.335 144.273 200.957 144.273C201.579 144.273 202.084 144.779 202.084 145.403Z" fill="#DBC4FF"/>
<path d="M202.084 139.884C202.084 140.509 201.579 141.014 200.957 141.014C200.335 141.014 199.83 140.509 199.83 139.884C199.83 139.26 200.335 138.754 200.957 138.754C201.579 138.754 202.084 139.26 202.084 139.884Z" fill="#DBC4FF"/>
<path opacity="0.88" d="M166.801 19.6441C155.311 19.8351 144.744 23.7015 136.19 30.1039C128.743 28.0489 120.882 27.0097 112.769 27.1443C66.9745 27.9046 30.4654 65.7395 31.2242 111.65C31.2512 113.295 31.3275 114.927 31.4485 116.546C22.6009 126.171 17.2852 139.089 17.5182 153.209C18.0001 182.376 41.975 205.629 71.0683 205.146C83.6423 204.937 95.1126 200.326 104.047 192.805C107.8 193.262 111.629 193.467 115.516 193.403C158.775 192.685 193.748 158.883 196.848 116.443C211.272 106.808 220.659 90.2453 220.351 71.5809C219.869 42.414 195.894 19.1609 166.801 19.6441Z" fill="#DBC4FF"/>
<mask id="mask0_82_188" style="mask-type:luminance" maskUnits="userSpaceOnUse" x="17" y="19" width="204" height="187">
<path d="M166.801 19.6441C155.311 19.8351 144.744 23.7015 136.19 30.1039C128.743 28.0489 120.882 27.0097 112.769 27.1443C66.9745 27.9046 30.4654 65.7395 31.2242 111.65C31.2512 113.295 31.3275 114.927 31.4485 116.546C22.6009 126.171 17.2852 139.089 17.5182 153.209C18.0001 182.376 41.975 205.629 71.0683 205.146C83.6423 204.937 95.1126 200.326 104.047 192.805C107.8 193.262 111.629 193.467 115.516 193.403C158.775 192.685 193.748 158.883 196.848 116.443C211.272 106.808 220.659 90.2453 220.351 71.5809C219.869 42.414 195.894 19.1609 166.801 19.6441Z" fill="white"/>
</mask>
<g mask="url(#mask0_82_188)">
<path d="M149.112 109.996L28.4795 119.589C26.1711 119.773 24.151 118.045 23.9678 115.731L16.4071 20.1714C16.2239 17.8571 17.9471 15.8318 20.2555 15.6482L140.888 6.05489C143.197 5.87123 145.217 7.59881 145.4 9.91308L152.961 105.472C153.144 107.787 151.421 109.812 149.112 109.996Z" stroke="white" stroke-width="1.5883" stroke-miterlimit="10"/>
</g>
<mask id="mask1_82_188" style="mask-type:luminance" maskUnits="userSpaceOnUse" x="17" y="19" width="204" height="187">
<path d="M166.801 19.6441C155.311 19.8351 144.744 23.7015 136.19 30.1039C128.743 28.0489 120.882 27.0097 112.769 27.1443C66.9745 27.9046 30.4654 65.7395 31.2242 111.65C31.2512 113.295 31.3275 114.927 31.4485 116.546C22.6009 126.171 17.2852 139.089 17.5182 153.209C18.0001 182.376 41.975 205.629 71.0683 205.146C83.6423 204.937 95.1126 200.326 104.047 192.805C107.8 193.262 111.629 193.467 115.516 193.403C158.775 192.685 193.748 158.883 196.848 116.443C211.272 106.808 220.659 90.2453 220.351 71.5809C219.869 42.414 195.894 19.1609 166.801 19.6441Z" fill="white"/>
</mask>
<g mask="url(#mask1_82_188)">
<path d="M246.313 202.36L125.681 211.953C123.372 212.137 121.352 210.409 121.169 208.095L113.608 112.536C113.425 110.221 115.148 108.197 117.457 108.013L238.089 98.4196C240.398 98.236 242.418 99.9636 242.601 102.278L250.162 197.837C250.345 200.152 248.622 202.176 246.313 202.36Z" stroke="white" stroke-width="1.5883" stroke-miterlimit="10"/>
</g>
<mask id="mask2_82_188" style="mask-type:luminance" maskUnits="userSpaceOnUse" x="17" y="19" width="204" height="187">
<path d="M166.801 19.6441C155.311 19.8351 144.744 23.7015 136.19 30.1039C128.743 28.0489 120.882 27.0097 112.769 27.1443C66.9745 27.9046 30.4654 65.7395 31.2242 111.65C31.2512 113.295 31.3275 114.927 31.4485 116.546C22.6009 126.171 17.2852 139.089 17.5182 153.209C18.0001 182.376 41.975 205.629 71.0683 205.146C83.6423 204.937 95.1126 200.326 104.047 192.805C107.8 193.262 111.629 193.467 115.516 193.403C158.775 192.685 193.748 158.883 196.848 116.443C211.272 106.808 220.659 90.2453 220.351 71.5809C219.869 42.414 195.894 19.1609 166.801 19.6441Z" fill="white"/>
</mask>
<g mask="url(#mask2_82_188)">
<path d="M290.719 107.37L170.087 116.963C167.778 117.146 165.758 115.419 165.575 113.105L158.014 17.5456C157.831 15.2314 159.554 13.2061 161.863 13.0224L282.495 3.42916C284.804 3.2455 286.824 4.97308 287.007 7.28735L294.568 102.846C294.751 105.161 293.028 107.186 290.719 107.37Z" stroke="white" stroke-width="1.5883" stroke-miterlimit="10"/>
</g>
<mask id="mask3_82_188" style="mask-type:luminance" maskUnits="userSpaceOnUse" x="17" y="19" width="204" height="187">
<path d="M166.801 19.6441C155.311 19.8351 144.744 23.7015 136.19 30.1039C128.743 28.0489 120.882 27.0097 112.769 27.1443C66.9745 27.9046 30.4654 65.7395 31.2242 111.65C31.2512 113.295 31.3275 114.927 31.4485 116.546C22.6009 126.171 17.2852 139.089 17.5182 153.209C18.0001 182.376 41.975 205.629 71.0683 205.146C83.6423 204.937 95.1126 200.326 104.047 192.805C107.8 193.262 111.629 193.467 115.516 193.403C158.775 192.685 193.748 158.883 196.848 116.443C211.272 106.808 220.659 90.2453 220.351 71.5809C219.869 42.414 195.894 19.1609 166.801 19.6441Z" fill="white"/>
</mask>
<g mask="url(#mask3_82_188)">
<path d="M216.527 263.594L18.1285 279.371C15.1896 279.605 12.6181 277.406 12.3851 274.459L5.00535 181.189C4.77236 178.242 6.96564 175.664 9.90494 175.431L208.303 159.653C211.242 159.419 213.814 161.618 214.047 164.565L221.427 257.835C221.66 260.782 219.466 263.36 216.527 263.594Z" stroke="white" stroke-width="1.0589" stroke-miterlimit="10"/>
</g>
<mask id="mask4_82_188" style="mask-type:luminance" maskUnits="userSpaceOnUse" x="17" y="19" width="204" height="187">
<path d="M166.801 19.6441C155.311 19.8351 144.744 23.7015 136.19 30.1039C128.743 28.0489 120.882 27.0097 112.769 27.1443C66.9745 27.9046 30.4654 65.7395 31.2242 111.65C31.2512 113.295 31.3275 114.927 31.4485 116.546C22.6009 126.171 17.2852 139.089 17.5182 153.209C18.0001 182.376 41.975 205.629 71.0683 205.146C83.6423 204.937 95.1126 200.326 104.047 192.805C107.8 193.262 111.629 193.467 115.516 193.403C158.775 192.685 193.748 158.883 196.848 116.443C211.272 106.808 220.659 90.2453 220.351 71.5809C219.869 42.414 195.894 19.1609 166.801 19.6441Z" fill="white"/>
</mask>
<g mask="url(#mask4_82_188)">
<path d="M22.103 109.028L152.543 98.655" stroke="white" stroke-width="1.5883" stroke-miterlimit="10"/>
</g>
<mask id="mask5_82_188" style="mask-type:luminance" maskUnits="userSpaceOnUse" x="17" y="19" width="204" height="187">
<path d="M166.801 19.6441C155.311 19.8351 144.744 23.7015 136.19 30.1039C128.743 28.0489 120.882 27.0097 112.769 27.1443C66.9745 27.9046 30.4654 65.7395 31.2242 111.65C31.2512 113.295 31.3275 114.927 31.4485 116.546C22.6009 126.171 17.2852 139.089 17.5182 153.209C18.0001 182.376 41.975 205.629 71.0683 205.146C83.6423 204.937 95.1126 200.326 104.047 192.805C107.8 193.262 111.629 193.467 115.516 193.403C158.775 192.685 193.748 158.883 196.848 116.443C211.272 106.808 220.659 90.2453 220.351 71.5809C219.869 42.414 195.894 19.1609 166.801 19.6441Z" fill="white"/>
</mask>
<g mask="url(#mask5_82_188)">
<path d="M116.539 183.498C116.592 184.162 116.098 184.743 115.436 184.795C114.774 184.848 114.195 184.353 114.143 183.689C114.09 183.026 114.584 182.445 115.246 182.393C115.907 182.339 116.487 182.835 116.539 183.498Z" fill="white"/>
<path d="M116.167 177.622C116.219 178.286 115.726 178.866 115.064 178.919C114.402 178.971 113.822 178.476 113.77 177.813C113.718 177.149 114.212 176.569 114.874 176.516C115.536 176.463 116.114 176.958 116.167 177.622Z" fill="white"/>
<path d="M115.703 171.753C115.755 172.417 115.261 172.998 114.599 173.05C113.938 173.102 113.358 172.607 113.306 171.944C113.254 171.28 113.747 170.7 114.409 170.647C115.071 170.594 115.65 171.09 115.703 171.753Z" fill="white"/>
</g>
<path d="M190.442 180.795H149.663C148.94 180.795 148.354 180.207 148.354 179.482V168.98C148.354 168.255 148.94 167.667 149.663 167.667H190.442C191.165 167.667 191.751 168.255 191.751 168.98V179.482C191.752 180.207 191.165 180.795 190.442 180.795Z" fill="#5DF888"/>
<path opacity="0.49" d="M189.507 175.544H154.339C154.134 175.544 153.965 175.375 153.965 175.169V174.418C153.965 174.212 154.133 174.043 154.339 174.043H189.507C189.712 174.043 189.881 174.212 189.881 174.418V175.169C189.881 175.375 189.713 175.544 189.507 175.544Z" fill="white"/>
<path opacity="0.49" d="M176.86 178.169H154.266C154.101 178.169 153.966 178.034 153.966 177.868V176.97C153.966 176.805 154.101 176.669 154.266 176.669H176.86C177.026 176.669 177.161 176.805 177.161 176.97V177.868C177.161 178.034 177.026 178.169 176.86 178.169Z" fill="white"/>
<path d="M176.117 171.793H154.261C154.099 171.793 153.966 171.66 153.966 171.497V170.59C153.966 170.426 154.099 170.293 154.261 170.293H176.117C176.279 170.293 176.412 170.426 176.412 170.59V171.497C176.413 171.66 176.279 171.793 176.117 171.793Z" fill="white"/>
<path d="M201.396 163.061H61.3161C58.6354 163.061 56.4622 160.883 56.4622 158.195V47.2308C56.4622 44.5432 58.6354 42.3645 61.3161 42.3645H201.396C204.077 42.3645 206.25 44.5432 206.25 47.2308V158.195C206.25 160.883 204.077 163.061 201.396 163.061Z" fill="#DBC4FF"/>
<path d="M199.172 160.826H58.4435C55.8802 160.826 53.8025 158.743 53.8025 156.173V44.7822C53.8025 42.2124 55.8807 40.1294 58.4435 40.1294H199.172C201.735 40.1294 203.813 42.2128 203.813 44.7822V156.173C203.813 158.743 201.735 160.826 199.172 160.826Z" fill="white"/>
<mask id="mask6_82_188" style="mask-type:luminance" maskUnits="userSpaceOnUse" x="53" y="40" width="151" height="121">
<path d="M199.172 160.826H58.4435C55.8802 160.826 53.8025 158.743 53.8025 156.173V44.7822C53.8025 42.2124 55.8807 40.1294 58.4435 40.1294H199.172C201.735 40.1294 203.813 42.2128 203.813 44.7822V156.173C203.813 158.743 201.735 160.826 199.172 160.826Z" fill="white"/>
</mask>
<g mask="url(#mask6_82_188)">
<path d="M219.753 31.8271H35.3001V58.6485H219.753V31.8271Z" fill="#7B87F4"/>
</g>
<path d="M196.169 63.1191H61.1279V155.079H196.169V63.1191Z" stroke="#7B87F4" stroke-width="0.6972" stroke-miterlimit="10"/>
<path d="M79.7596 62.9592V154.919" stroke="#7B87F4" stroke-width="0.6972" stroke-miterlimit="10"/>
<path d="M99.5065 63.1191V155.078" stroke="#7B87F4" stroke-width="0.6972" stroke-miterlimit="10"/>
<path d="M118.934 62.9592V154.919" stroke="#7B87F4" stroke-width="0.6972" stroke-miterlimit="10"/>
<path d="M138.681 63.1191V155.078" stroke="#7B87F4" stroke-width="0.6972" stroke-miterlimit="10"/>
<path d="M157.153 62.9592V154.919" stroke="#7B87F4" stroke-width="0.6972" stroke-miterlimit="10"/>
<path d="M176.9 63.1191V155.078" stroke="#7B87F4" stroke-width="0.6972" stroke-miterlimit="10"/>
<path d="M61.2869 82.1174H196.328" stroke="#7B87F4" stroke-width="0.6972" stroke-miterlimit="10"/>
<path d="M61.4463 100.318H196.488" stroke="#7B87F4" stroke-width="0.6972" stroke-miterlimit="10"/>
<path d="M61.2869 118.518H196.328" stroke="#7B87F4" stroke-width="0.6972" stroke-miterlimit="10"/>
<path d="M61.4463 136.718H196.488" stroke="#7B87F4" stroke-width="0.6972" stroke-miterlimit="10"/>
<path d="M64.1536 48.7502C64.1536 49.5439 63.5117 50.187 62.7205 50.187C61.9288 50.187 61.2874 49.5435 61.2874 48.7502C61.2874 47.9565 61.9292 47.3135 62.7205 47.3135C63.5117 47.3135 64.1536 47.9565 64.1536 48.7502Z" fill="white"/>
<path d="M69.4086 48.9101C69.4086 49.7038 68.7667 50.3469 67.9755 50.3469C67.1838 50.3469 66.5424 49.7034 66.5424 48.9101C66.5424 48.1164 67.1842 47.4734 67.9755 47.4734C68.7672 47.4729 69.4086 48.1164 69.4086 48.9101Z" fill="#5DF888"/>
<path d="M74.823 48.9101C74.823 49.7038 74.1812 50.3469 73.3899 50.3469C72.5987 50.3469 71.9568 49.7034 71.9568 48.9101C71.9568 48.1164 72.5987 47.4734 73.3899 47.4734C74.1812 47.4734 74.823 48.1164 74.823 48.9101Z" fill="#7B87F4"/>
<path d="M160.339 132.408H125.623C125.007 132.408 124.508 131.907 124.508 131.29V122.35C124.508 121.733 125.007 121.232 125.623 121.232H160.339C160.954 121.232 161.453 121.733 161.453 122.35V131.291C161.453 131.907 160.954 132.408 160.339 132.408Z" fill="#DBC4FF"/>
<path d="M94.4017 95.3687H72.7613C72.3168 95.3687 71.9564 95.0074 71.9564 94.5617V86.9159C71.9564 86.4702 72.3168 86.1089 72.7613 86.1089H94.4013C94.8458 86.1089 95.2062 86.4702 95.2062 86.9159V94.5617C95.2067 95.0074 94.8462 95.3687 94.4017 95.3687Z" fill="#7B87F4"/>
<path d="M102.373 79.0841H67.6566C67.0408 79.0841 66.5419 78.584 66.5419 77.9666V69.026C66.5419 68.409 67.0408 67.9084 67.6566 67.9084H102.373C102.988 67.9084 103.487 68.409 103.487 69.026V77.9666C103.487 78.584 102.988 79.0841 102.373 79.0841Z" fill="#5DF888"/>
<path d="M99.6654 71.1016H69.727C69.552 71.1016 69.4086 70.9578 69.4086 70.7824V70.1439C69.4086 69.9681 69.552 69.8247 69.727 69.8247H99.6654C99.8404 69.8247 99.9838 69.9685 99.9838 70.1439V70.7824C99.9838 70.9578 99.8408 71.1016 99.6654 71.1016Z" fill="white"/>
<path opacity="0.49" d="M99.6654 73.3367H69.727C69.552 73.3367 69.4086 73.1929 69.4086 73.0175V72.379C69.4086 72.2036 69.552 72.0598 69.727 72.0598H99.6654C99.8404 72.0598 99.9838 72.2036 99.9838 72.379V73.0175C99.9838 73.1929 99.8408 73.3367 99.6654 73.3367Z" fill="white"/>
<path opacity="0.49" d="M88.8991 75.5718H69.6644C69.5237 75.5718 69.4086 75.4564 69.4086 75.3153V74.5514C69.4086 74.4103 69.5237 74.2949 69.6644 74.2949H88.8991C89.0398 74.2949 89.1549 74.4103 89.1549 74.5514V75.3153C89.1554 75.4564 89.0403 75.5718 88.8991 75.5718Z" fill="white"/>
<path d="M169.893 150.289H135.178C134.562 150.289 134.063 149.789 134.063 149.171V140.231C134.063 139.613 134.562 139.113 135.178 139.113H169.893C170.509 139.113 171.008 139.613 171.008 140.231V149.171C171.008 149.789 170.509 150.289 169.893 150.289Z" fill="#5DF888"/>
<path opacity="0.49" d="M167.505 146.138H137.566C137.391 146.138 137.248 145.994 137.248 145.819V145.18C137.248 145.004 137.391 144.861 137.566 144.861H167.505C167.68 144.861 167.823 145.005 167.823 145.18V145.819C167.823 145.994 167.68 146.138 167.505 146.138Z" fill="white"/>
<path opacity="0.49" d="M156.738 148.373H137.504C137.363 148.373 137.248 148.258 137.248 148.117V147.353C137.248 147.212 137.363 147.096 137.504 147.096H156.738C156.879 147.096 156.994 147.212 156.994 147.353V148.117C156.995 148.258 156.879 148.373 156.738 148.373Z" fill="white"/>
<path d="M156.106 142.945H137.499C137.361 142.945 137.248 142.831 137.248 142.693V141.92C137.248 141.782 137.361 141.668 137.499 141.668H156.106C156.244 141.668 156.357 141.782 156.357 141.92V142.693C156.357 142.831 156.244 142.945 156.106 142.945Z" fill="white"/>
<path d="M149.829 111.653H115.113C114.497 111.653 113.998 111.153 113.998 110.536V101.595C113.998 100.978 114.497 100.478 115.113 100.478H149.829C150.444 100.478 150.943 100.978 150.943 101.595V110.536C150.943 111.153 150.444 111.653 149.829 111.653Z" fill="#DBC4FF"/>
<path opacity="0.49" d="M149.032 107.183H119.094C118.918 107.183 118.775 107.039 118.775 106.864V106.225C118.775 106.05 118.919 105.906 119.094 105.906H149.032C149.207 105.906 149.351 106.05 149.351 106.225V106.864C149.351 107.039 149.207 107.183 149.032 107.183Z" fill="white"/>
<path opacity="0.49" d="M138.266 109.418H119.031C118.891 109.418 118.775 109.303 118.775 109.162V108.398C118.775 108.257 118.891 108.141 119.031 108.141H138.266C138.407 108.141 138.522 108.257 138.522 108.398V109.162C138.522 109.303 138.407 109.418 138.266 109.418Z" fill="white"/>
<path d="M137.633 103.99H119.027C118.888 103.99 118.775 103.876 118.775 103.737V102.965C118.775 102.826 118.888 102.713 119.027 102.713H137.633C137.771 102.713 137.885 102.826 137.885 102.965V103.737C137.885 103.876 137.772 103.99 137.633 103.99Z" fill="white"/>
<path d="M194.33 94.0915H159.152C158.664 94.0915 158.268 93.6948 158.268 93.2057V87.9529C158.268 87.4637 158.664 87.0667 159.152 87.0667H194.33C194.818 87.0667 195.214 87.4633 195.214 87.9529V93.2057C195.214 93.6948 194.818 94.0915 194.33 94.0915Z" fill="#7B87F4"/>
<path opacity="0.49" d="M190.755 92.8145H160.816C160.641 92.8145 160.498 92.6707 160.498 92.4953V91.8568C160.498 91.6814 160.641 91.5376 160.816 91.5376H190.755C190.93 91.5376 191.073 91.6814 191.073 91.8568V92.4953C191.073 92.6707 190.93 92.8145 190.755 92.8145Z" fill="white"/>
<path d="M179.356 89.9405H160.75C160.611 89.9405 160.498 89.8269 160.498 89.6881V88.9159C160.498 88.7772 160.611 88.6636 160.75 88.6636H179.356C179.494 88.6636 179.608 88.7772 179.608 88.9159V89.6881C179.608 89.8269 179.494 89.9405 179.356 89.9405Z" fill="white"/>
<path d="M74.9706 117.081H63.847C63.2248 117.081 62.7205 116.575 62.7205 115.952V104.8C62.7205 104.176 63.2248 103.67 63.847 103.67H74.9706C75.5928 103.67 76.0971 104.176 76.0971 104.8V115.952C76.0971 116.575 75.5928 117.081 74.9706 117.081Z" fill="#5DF888"/>
<path d="M70.6827 110.695C70.6827 112.106 69.542 113.249 68.1349 113.249C66.7278 113.249 65.5871 112.106 65.5871 110.695C65.5871 109.284 66.7278 108.141 68.1349 108.141C69.542 108.141 70.6827 109.284 70.6827 110.695Z" fill="white"/>
<path d="M171.474 80.0423H160.35C159.728 80.0423 159.224 79.5367 159.224 78.9129V67.761C159.224 67.1372 159.728 66.6316 160.35 66.6316H171.474C172.096 66.6316 172.601 67.1372 172.601 67.761V78.9129C172.601 79.5367 172.096 80.0423 171.474 80.0423Z" fill="#DBC4FF"/>
<path d="M164.638 70.9417C164.638 71.5591 164.139 72.0593 163.524 72.0593C162.908 72.0593 162.409 71.5591 162.409 70.9417C162.409 70.3244 162.908 69.8242 163.524 69.8242C164.139 69.8242 164.638 70.3248 164.638 70.9417Z" fill="white"/>
<path d="M165.912 75.0932C165.912 73.9469 166.839 73.0176 167.983 73.0176C169.126 73.0176 170.053 73.9469 170.053 75.0932C170.053 76.2396 169.126 77.1689 167.983 77.1689C166.839 77.1684 165.912 76.2391 165.912 75.0932Z" fill="white"/>
<path d="M113.827 158.272H102.703C102.081 158.272 101.576 157.766 101.576 157.142V145.99C101.576 145.366 102.081 144.861 102.703 144.861H113.827C114.449 144.861 114.953 145.366 114.953 145.99V157.142C114.953 157.766 114.449 158.272 113.827 158.272Z" fill="#7B87F4"/>
<path d="M111.131 155.238C111.131 155.856 110.632 156.356 110.016 156.356C109.401 156.356 108.902 155.855 108.902 155.238C108.902 154.621 109.401 154.121 110.016 154.121C110.632 154.121 111.131 154.621 111.131 155.238Z" fill="white"/>
<path d="M110.176 150.608C110.176 151.843 109.178 152.843 107.947 152.843C106.715 152.843 105.717 151.843 105.717 150.608C105.717 149.374 106.715 148.373 107.947 148.373C109.178 148.373 110.176 149.374 110.176 150.608Z" fill="white"/>
<path d="M195.055 50.3469H153.014C152.222 50.3469 151.581 49.7034 151.581 48.9101C151.581 48.1164 152.222 47.4734 153.014 47.4734H195.055C195.846 47.4734 196.488 48.1169 196.488 48.9101C196.488 49.7034 195.846 50.3469 195.055 50.3469Z" fill="#7B87F4"/>
<path d="M73.0884 43.2302H32.3092C31.586 43.2302 30.9999 42.6426 30.9999 41.9176V31.4157C30.9999 30.6906 31.586 30.103 32.3092 30.103H73.0879C73.8111 30.103 74.3972 30.6906 74.3972 31.4157V41.9176C74.3977 42.6422 73.8116 43.2302 73.0884 43.2302Z" fill="#7B87F4"/>
<path opacity="0.49" d="M72.1528 37.9792H36.9859C36.7803 37.9792 36.6117 37.8106 36.6117 37.6041V36.8539C36.6117 36.6478 36.7798 36.4788 36.9859 36.4788H72.1528C72.3588 36.4788 72.527 36.6478 72.527 36.8539V37.6041C72.527 37.8102 72.3588 37.9792 72.1528 37.9792Z" fill="white"/>
<path opacity="0.49" d="M59.5066 40.6044H36.9123C36.7469 40.6044 36.6117 40.4688 36.6117 40.303V39.4054C36.6117 39.2396 36.7469 39.104 36.9123 39.104H59.5066C59.672 39.104 59.8072 39.2396 59.8072 39.4054V40.303C59.8072 40.4688 59.672 40.6044 59.5066 40.6044Z" fill="white"/>
<path d="M58.7629 34.2282H36.9073C36.7446 34.2282 36.6117 34.0949 36.6117 33.9319V33.0246C36.6117 32.8616 36.7446 32.7283 36.9073 32.7283H58.7629C58.9255 32.7283 59.0585 32.8616 59.0585 33.0246V33.9319C59.0589 34.0949 58.926 34.2282 58.7629 34.2282Z" fill="white"/>
<path opacity="0.29" d="M75.1707 220.018C88.8746 220.018 99.9838 218.924 99.9838 217.575C99.9838 216.226 88.8746 215.133 75.1707 215.133C61.4667 215.133 50.3575 216.226 50.3575 217.575C50.3575 218.924 61.4667 220.018 75.1707 220.018Z" fill="#DBC4FF"/>
<path d="M80.5097 211.056L81.3499 215.518C81.3499 215.518 80.93 218.045 81.3499 218.466C81.7697 218.886 91.3889 218.586 91.8507 218.184C92.9243 217.25 84.0795 215.35 84.0795 215.35L83.5335 209.455L80.5097 211.056Z" fill="#FC8B8C"/>
<mask id="mask7_82_188" style="mask-type:luminance" maskUnits="userSpaceOnUse" x="80" y="209" width="12" height="10">
<path d="M80.5097 211.056L81.3499 215.518C81.3499 215.518 80.93 218.045 81.3499 218.466C81.7697 218.886 91.3889 218.586 91.8507 218.184C92.9243 217.25 84.0795 215.35 84.0795 215.35L83.5335 209.455L80.5097 211.056Z" fill="white"/>
</mask>
<g mask="url(#mask7_82_188)">
<path d="M79.3896 215.715C79.3896 215.715 84.8319 216.388 87.6542 213.581C90.4766 210.775 92.3802 220.318 92.3802 220.318L84.0818 222.788L77.4859 219.419L79.3896 215.715Z" fill="#DBC4FF"/>
</g>
<path d="M55.7564 206.51L55.3667 213.859C55.3667 213.859 55.0858 216.281 55.3667 216.806C55.6066 217.255 60.645 217.527 61.6661 216.806C62.1659 216.453 58.0963 213.691 58.0963 213.691L60.0119 208.306L55.7564 206.51Z" fill="#FC8B8C"/>
<mask id="mask8_82_188" style="mask-type:luminance" maskUnits="userSpaceOnUse" x="55" y="206" width="7" height="12">
<path d="M55.7564 206.51L55.3667 213.859C55.3667 213.859 55.0858 216.281 55.3667 216.806C55.6066 217.255 60.645 217.527 61.6661 216.806C62.1659 216.453 58.0963 213.691 58.0963 213.691L60.0119 208.306L55.7564 206.51Z" fill="white"/>
</mask>
<g mask="url(#mask8_82_188)">
<path d="M53.4069 214.056C53.4069 214.056 58.8492 214.729 61.6716 211.922C64.4939 209.116 66.3975 218.658 66.3975 218.658L58.0995 221.128L51.5037 217.76L53.4069 214.056Z" fill="#DBC4FF"/>
</g>
<path d="M108.974 92.7633L111.927 90.0199C111.927 90.0199 113.261 86.6765 114.595 86.0078C115.929 85.3391 116.43 84.8376 116.763 84.6705C117.097 84.5033 119.431 80.8256 119.931 81.1599C120.431 81.4942 117.764 85.5063 117.764 85.5063C117.764 85.5063 118.764 87.3452 118.764 88.5154C118.764 89.6856 114.429 91.8588 114.429 91.8588L110.76 97.5426L108.974 92.7633Z" fill="#FC8B8C"/>
<path d="M75.8267 71.4435C76.0939 72.5683 75.8418 73.5919 75.2639 73.7298C74.686 73.8677 74.0012 73.0675 73.7339 71.9431C73.4667 70.8183 73.7188 69.7947 74.2967 69.6568C74.8746 69.5189 75.5599 70.3191 75.8267 71.4435Z" stroke="#DBC4FF" stroke-width="0.6403" stroke-miterlimit="10"/>
<path d="M84.0818 141.03V212.775L77.7943 213.392L71.5242 156.088L60.4883 210.943L55.1479 211.095L59.1608 140.86L84.0818 141.03Z" fill="#7B87F4"/>
<mask id="mask9_82_188" style="mask-type:luminance" maskUnits="userSpaceOnUse" x="55" y="140" width="30" height="74">
<path d="M84.0818 141.03V212.775L77.7943 213.392L71.5242 156.088L60.4883 210.943L55.1479 211.095L59.1608 140.86L84.0818 141.03Z" fill="white"/>
</mask>
<g mask="url(#mask9_82_188)">
<path opacity="0.35" d="M69.9079 163.36C70.0669 163.413 70.2259 163.121 70.378 162.626C70.9518 160.758 71.4264 156.001 71.4264 156.001L71.1733 146.358C71.1733 146.358 68.6425 152.702 69.4017 154.225C70.161 155.747 64.5926 156.254 66.6177 158.792C68.6425 161.33 64.0869 163.36 68.3894 166.405C72.6923 169.45 69.9079 163.36 69.9079 163.36Z" fill="#7B87F4"/>
</g>
<mask id="mask10_82_188" style="mask-type:luminance" maskUnits="userSpaceOnUse" x="55" y="140" width="30" height="74">
<path d="M84.0818 141.03V212.775L77.7943 213.392L71.5242 156.088L60.4883 210.943L55.1479 211.095L59.1608 140.86L84.0818 141.03Z" fill="white"/>
</mask>
<g mask="url(#mask10_82_188)">
<path d="M77.1214 150.799C74.749 150.799 72.8189 147.327 72.8189 143.06C72.8189 138.792 74.749 135.321 77.1214 135.321C79.4942 135.321 81.4243 138.793 81.4243 143.06C81.4243 147.327 79.4942 150.799 77.1214 150.799ZM77.1214 135.574C74.8884 135.574 73.072 138.932 73.072 143.06C73.072 147.187 74.8888 150.545 77.1214 150.545C79.3544 150.545 81.1712 147.187 81.1712 143.06C81.1712 138.932 79.3544 135.574 77.1214 135.574Z" fill="#DBC4FF"/>
</g>
<mask id="mask11_82_188" style="mask-type:luminance" maskUnits="userSpaceOnUse" x="55" y="140" width="30" height="74">
<path d="M84.0818 141.03V212.775L77.7943 213.392L71.5242 156.088L60.4883 210.943L55.1479 211.095L59.1608 140.86L84.0818 141.03Z" fill="white"/>
</mask>
<g mask="url(#mask11_82_188)">
<path d="M63.3747 150.837C63.2253 150.837 63.0759 150.823 62.9279 150.795C60.5953 150.36 59.3312 146.593 60.1096 142.398C60.8881 138.203 63.4208 135.142 65.7516 135.578C68.0842 136.013 69.3483 139.78 68.5698 143.976C67.8412 147.904 65.5752 150.837 63.3747 150.837ZM65.2957 135.79C63.2193 135.79 61.0649 138.637 60.3582 142.444C59.6053 146.502 60.7784 150.136 62.974 150.546C65.1682 150.955 67.568 147.987 68.3208 143.929C69.0737 139.871 67.9006 136.237 65.705 135.827C65.5698 135.802 65.4327 135.79 65.2957 135.79Z" fill="#DBC4FF"/>
</g>
<mask id="mask12_82_188" style="mask-type:luminance" maskUnits="userSpaceOnUse" x="55" y="140" width="30" height="74">
<path d="M84.0818 141.03V212.775L77.7943 213.392L71.5242 156.088L60.4883 210.943L55.1479 211.095L59.1608 140.86L84.0818 141.03Z" fill="white"/>
</mask>
<g mask="url(#mask12_82_188)">
<path d="M57.7592 141.791C57.7592 141.791 72.9454 146.359 84.5884 141.791C96.2309 137.224 59.0246 135.701 57.7592 141.791Z" fill="#DBC4FF"/>
</g>
<mask id="mask13_82_188" style="mask-type:luminance" maskUnits="userSpaceOnUse" x="55" y="140" width="30" height="74">
<path d="M84.0818 141.03V212.775L77.7943 213.392L71.5242 156.088L60.4883 210.943L55.1479 211.095L59.1608 140.86L84.0818 141.03Z" fill="white"/>
</mask>
<g mask="url(#mask13_82_188)">
<path d="M53.7884 167.357C55.258 167.357 55.2608 165.067 53.7884 165.067C52.3183 165.067 52.316 167.357 53.7884 167.357Z" fill="#DBC4FF"/>
</g>
<mask id="mask14_82_188" style="mask-type:luminance" maskUnits="userSpaceOnUse" x="55" y="140" width="30" height="74">
<path d="M84.0818 141.03V212.775L77.7943 213.392L71.5242 156.088L60.4883 210.943L55.1479 211.095L59.1608 140.86L84.0818 141.03Z" fill="white"/>
</mask>
<g mask="url(#mask14_82_188)">
<path d="M82.1306 139.973V214.913" stroke="#DBC4FF" stroke-width="0.5" stroke-miterlimit="10"/>
</g>
<path d="M71.9139 88.8988C71.9139 88.8988 74.1994 86.5932 84.2394 92.5413C94.2793 98.4893 95.1921 98.9469 95.1921 98.9469L109.339 87.9663L113.903 93.4568C113.903 93.4568 103.126 110.935 96.7371 111.85C90.3482 112.765 83.5756 109.566 83.5756 109.566L84.841 141.792C84.841 141.792 71.4264 145.09 58.7711 141.031L54.5755 117.706C54.5755 117.706 49.5553 114.503 50.4681 103.522C51.3808 92.5417 62.6378 87.9663 62.6378 87.9663L71.9139 88.8988Z" fill="#F4901F"/>
<path d="M70.7594 82.5215C75.3657 83.1879 75.723 81.3357 75.4512 76.3101C75.1798 71.2849 72.8303 67.3768 72.8303 67.3768C64.4957 62.113 64.2161 74.4328 64.6575 81.3623C64.8329 84.1144 63.6218 86.7685 61.4212 88.4233C65.985 92.5412 72.8303 88.4233 72.8303 88.4233L72.7567 88.3125C71.6082 86.5849 70.9202 84.5912 70.7594 82.5215Z" fill="#FC8B8C"/>
<path d="M70.0075 77.064C70.0075 77.064 70.2048 80.7188 67.5447 82.238C64.8845 83.7572 57.322 79.1277 57.6157 67.6567C57.6157 67.6567 61.4207 61.9518 66.4085 61.2222C71.3963 60.4931 71.5447 63.2342 71.5447 63.2342C71.5447 63.2342 73.7737 62.1969 74.3776 64.9133C74.9815 67.6297 69.5872 69.2972 69.5872 69.2972C69.5872 69.2972 71.6325 73.3098 70.8197 75.1871C70.0075 77.064 70.0075 77.064 70.0075 77.064Z" fill="#1D1B23"/>
<path d="M94.6626 112.046C84.8145 112.046 80.4878 107.163 80.4426 107.111L80.634 106.944C80.6815 107 85.5432 112.469 96.7284 111.722C96.7558 111.72 99.7554 111.41 103.596 106.945L103.788 107.11C99.871 111.664 96.8732 111.964 96.7476 111.975C96.0276 112.024 95.3314 112.046 94.6626 112.046Z" fill="#DBC4FF"/>
<path d="M52.9493 107.135L52.7003 107.178L55.8197 125.328L56.0686 125.285L52.9493 107.135Z" fill="#DBC4FF"/>
<path d="M58.7843 68.128C58.2005 67.6347 57.7062 67.065 57.3065 66.4128C57.1146 66.1004 56.6221 66.3867 56.8149 66.7009C57.2389 67.3924 57.7628 68.0084 58.3819 68.5319C58.6601 68.7669 59.0648 68.3652 58.7843 68.128Z" fill="#1D1B23"/>
<path d="M58.6679 67.8348C58.0242 67.6219 57.3613 67.5266 56.6838 67.5481C56.3183 67.5596 56.3165 68.1307 56.6838 68.1193C57.3138 68.0996 57.9182 68.188 58.5166 68.3858C58.8652 68.5008 59.015 67.9493 58.6679 67.8348Z" fill="#1D1B23"/>
<path d="M69.2752 74.9289L75.718 71.0693" stroke="#DBC4FF" stroke-width="0.6403" stroke-miterlimit="10"/>
<path d="M70.6685 75.1688C71.3305 75.9309 71.405 76.9527 70.8348 77.4506C70.2647 77.9484 69.2656 77.7341 68.6036 76.972C67.9417 76.2099 67.8672 75.1881 68.4373 74.6907C69.0075 74.1933 70.0061 74.4062 70.6685 75.1688Z" fill="#FC8B8C"/>
</g>
<defs>
<clipPath id="clip0_82_188">
<rect width="228.419" height="229" fill="white" transform="translate(0.580872)"/>
</clipPath>
</defs>
</svg>
