<svg width="522" height="283" viewBox="0 0 522 283" fill="none" xmlns="http://www.w3.org/2000/svg">
<path d="M35.9977 264.207C35.9977 264.207 -22.5488 217.665 9.68718 153.211C41.9232 88.7572 -3.01176 66.4385 28.2473 53.1626C59.5063 39.8867 76.7954 68.8034 163.336 44.7822C249.876 20.761 423.739 -19.142 463.451 10.5653C503.163 40.2726 389.585 121.879 443.248 121.262C551.837 120.013 531.37 231.672 478.845 267.703C452.212 285.972 35.9977 264.207 35.9977 264.207Z" fill="url(#paint0_linear_313_10994)"/>
<path d="M510.385 270.097C430.205 237.487 48.6995 251.722 23.9478 261.399C-0.803963 271.076 28.7681 277.589 92.4711 274.006C156.174 270.424 238.138 274.405 308.539 276.323C378.94 278.24 562.363 291.237 510.385 270.097Z" fill="url(#paint1_linear_313_10994)"/>
<path d="M408.761 83.3739C408.995 81.2728 409.12 79.1387 409.12 76.9752C409.12 75.8336 409.083 74.7009 409.017 73.5757L398.444 70.1548C397.793 65.697 396.514 61.4437 394.7 57.4866L401.711 48.8595C400.089 46.0061 398.23 43.3054 396.157 40.7866L385.583 44.2369C382.501 41.088 378.979 38.3728 375.114 36.1905L375.716 25.0805C372.765 23.7372 369.68 22.6379 366.485 21.8089L359.956 30.8198C357.411 30.3915 354.797 30.1651 352.13 30.1651C350.312 30.1651 348.519 30.2724 346.755 30.4741L340.71 21.1299C337.471 21.7887 334.332 22.7224 331.318 23.9053L331.331 35.0317C327.35 37.0096 323.69 39.5367 320.452 42.5155L310.078 38.5126C307.873 40.9214 305.872 43.5189 304.103 46.2805L310.65 55.2679C308.624 59.1321 307.12 63.3135 306.237 67.7194L295.499 70.5767C295.264 72.6777 295.139 74.8118 295.139 76.9754C295.139 78.1171 295.177 79.2498 295.243 80.3749L305.816 83.7958C306.467 88.2535 307.745 92.507 309.56 96.4641L302.549 105.091C304.17 107.944 306.03 110.645 308.102 113.164L318.677 109.714C321.759 112.863 325.281 115.578 329.145 117.76L328.543 128.87C331.494 130.214 334.58 131.313 337.774 132.142L344.304 123.131C346.849 123.559 349.463 123.786 352.13 123.786C353.948 123.786 355.74 123.678 357.504 123.477L363.55 132.821C366.789 132.162 369.928 131.228 372.942 130.045L372.928 118.919C376.909 116.941 380.569 114.414 383.807 111.435L394.182 115.438C396.386 113.029 398.387 110.432 400.156 107.67L393.609 98.683C395.636 94.8186 397.139 90.6374 398.023 86.2315L408.761 83.3739ZM352.13 99.3279C339.784 99.3279 329.777 89.3202 329.777 76.975C329.777 64.6298 339.785 54.6221 352.13 54.6221C364.475 54.6221 374.482 64.6298 374.482 76.975C374.482 89.3202 364.475 99.3279 352.13 99.3279Z" fill="white"/>
<path d="M382.617 102.469C382.428 102.469 382.239 102.405 382.083 102.276C381.728 101.98 381.68 101.454 381.975 101.099C387.593 94.3436 390.687 85.7762 390.687 76.9749C390.687 72.7603 389.998 68.6219 388.638 64.6746C388.488 64.2384 388.719 63.7628 389.156 63.6126C389.592 63.4625 390.067 63.6941 390.218 64.1304C391.638 68.2533 392.358 72.5746 392.358 76.9749C392.358 86.1657 389.127 95.1126 383.26 102.167C383.094 102.366 382.856 102.469 382.617 102.469Z" fill="#DCC5FF"/>
<path d="M379.381 49.7102C379.175 49.7102 378.97 49.6349 378.808 49.483C375.033 45.9286 370.66 43.2344 365.811 41.475C365.377 41.3176 365.153 40.8384 365.311 40.4048C365.468 39.9709 365.948 39.747 366.381 39.9044C371.445 41.7417 376.012 44.5551 379.954 48.2664C380.29 48.5827 380.305 49.1115 379.989 49.4474C379.825 49.622 379.603 49.7102 379.381 49.7102Z" fill="#DCC5FF"/>
<path d="M343.459 40.394C343.086 40.394 342.745 40.1417 342.65 39.7629C342.537 39.3156 342.808 38.8613 343.255 38.7483C346.402 37.9541 349.658 37.5513 352.934 37.5513C353.395 37.5513 353.769 37.9254 353.769 38.3867C353.769 38.8481 353.395 39.2222 352.934 39.2222C349.796 39.2222 346.677 39.6079 343.664 40.3685C343.596 40.3858 343.527 40.394 343.459 40.394Z" fill="#DCC5FF"/>
<path d="M483.801 97.9434C483.964 96.4881 484.05 95.0099 484.05 93.5112C484.05 92.7205 484.024 91.9358 483.978 91.1567L476.655 88.7871C476.204 85.6996 475.319 82.7534 474.062 80.0126L478.918 74.0371C477.795 72.0607 476.507 70.1901 475.071 68.4455L467.747 70.8354C465.612 68.6544 463.172 66.7736 460.496 65.2622L460.913 57.5669C458.869 56.6365 456.732 55.8751 454.519 55.3009L449.996 61.5422C448.233 61.2455 446.423 61.0887 444.576 61.0887C443.317 61.0887 442.075 61.1631 440.853 61.3028L436.666 54.8306C434.422 55.2869 432.248 55.9337 430.16 56.753L430.17 64.4597C427.412 65.8297 424.878 67.58 422.634 69.6431L415.449 66.8705C413.922 68.5389 412.536 70.3382 411.311 72.2507L415.845 78.4758C414.442 81.1523 413.4 84.0485 412.788 87.1002L405.351 89.0794C405.188 90.5344 405.102 92.0127 405.102 93.5114C405.102 94.3022 405.127 95.0867 405.174 95.866L412.497 98.2354C412.948 101.323 413.833 104.269 415.09 107.01L410.234 112.985C411.357 114.962 412.645 116.832 414.081 118.577L421.405 116.187C423.54 118.368 425.979 120.249 428.656 121.76L428.239 129.456C430.283 130.386 432.42 131.147 434.633 131.722L439.156 125.481C440.918 125.777 442.729 125.934 444.576 125.934C445.835 125.934 447.077 125.86 448.299 125.72L452.486 132.192C454.729 131.736 456.904 131.089 458.991 130.27L458.982 122.563C461.739 121.193 464.274 119.443 466.517 117.38L473.703 120.152C475.23 118.484 476.616 116.685 477.841 114.772L473.306 108.547C474.71 105.87 475.752 102.974 476.364 99.9224L483.801 97.9434ZM444.576 108.994C436.025 108.994 429.094 102.062 429.094 93.5114C429.094 84.9605 436.025 78.0288 444.576 78.0288C453.127 78.0288 460.059 84.9605 460.059 93.5114C460.059 102.062 453.127 108.994 444.576 108.994Z" fill="white"/>
<path d="M465.692 111.426C465.504 111.426 465.315 111.363 465.159 111.233C464.804 110.938 464.755 110.411 465.051 110.056C468.904 105.424 471.026 99.5478 471.026 93.5114C471.026 90.6207 470.553 87.7824 469.62 85.0753C469.47 84.6391 469.702 84.1635 470.138 84.0133C470.575 83.8631 471.05 84.0948 471.2 84.5311C472.193 87.4138 472.696 90.435 472.696 93.5114C472.696 99.9373 470.437 106.193 466.336 111.125C466.17 111.323 465.932 111.426 465.692 111.426Z" fill="#DCC5FF"/>
<path d="M463.451 74.8835C463.246 74.8835 463.04 74.8081 462.878 74.6564C460.289 72.2187 457.29 70.3708 453.965 69.1642C453.531 69.0068 453.307 68.5276 453.464 68.0938C453.621 67.66 454.101 67.4364 454.534 67.5933C458.075 68.878 461.268 70.845 464.024 73.4396C464.36 73.7559 464.376 74.2848 464.059 74.6206C463.895 74.7952 463.673 74.8835 463.451 74.8835Z" fill="#DCC5FF"/>
<path d="M438.57 68.4305C438.197 68.4305 437.856 68.1782 437.761 67.7994C437.648 67.3521 437.919 66.8978 438.366 66.7848C440.566 66.2295 442.843 65.948 445.133 65.948C445.594 65.948 445.968 66.3221 445.968 66.7835C445.968 67.2448 445.594 67.6189 445.133 67.6189C442.98 67.6189 440.841 67.8833 438.775 68.4049C438.707 68.4223 438.638 68.4305 438.57 68.4305Z" fill="#DCC5FF"/>
<mask id="mask0_313_10994" style="mask-type:luminance" maskUnits="userSpaceOnUse" x="56" y="23" width="87" height="87">
<path d="M99.5967 23.5691C75.7301 23.5691 56.3823 42.9168 56.3823 66.7836C56.3823 90.6503 75.7299 109.998 99.5967 109.998C123.463 109.998 142.811 90.6503 142.811 66.7836C142.811 42.9168 123.463 23.5691 99.5967 23.5691ZM99.5967 89.6761C86.9534 89.6761 76.7041 79.4268 76.7041 66.7835C76.7041 54.1402 86.9534 43.8908 99.5967 43.8908C112.24 43.8908 122.489 54.1402 122.489 66.7835C122.489 79.4268 112.24 89.6761 99.5967 89.6761Z" fill="white"/>
</mask>
<g mask="url(#mask0_313_10994)">
<path d="M138.654 90.6673L99.5961 66.7834L92.5312 112.017C110.879 114.909 129.077 106.312 138.654 90.6673Z" fill="#FC8B8C"/>
</g>
<mask id="mask1_313_10994" style="mask-type:luminance" maskUnits="userSpaceOnUse" x="56" y="23" width="87" height="87">
<path d="M99.5967 23.5691C75.7301 23.5691 56.3823 42.9168 56.3823 66.7836C56.3823 90.6503 75.7299 109.998 99.5967 109.998C123.463 109.998 142.811 90.6503 142.811 66.7836C142.811 42.9168 123.463 23.5691 99.5967 23.5691ZM99.5967 89.6761C86.9534 89.6761 76.7041 79.4268 76.7041 66.7835C76.7041 54.1402 86.9534 43.8908 99.5967 43.8908C112.24 43.8908 122.489 54.1402 122.489 66.7835C122.489 79.4268 112.24 89.6761 99.5967 89.6761Z" fill="white"/>
</mask>
<g mask="url(#mask1_313_10994)">
<path d="M138.695 90.6136C138.8 90.4412 138.938 90.2043 138.932 90.2133C147.181 76.3953 147.515 59.2333 139.946 45.146C126.124 52.3873 134.355 47.9883 99.5962 66.7836C138.718 90.7067 132.642 87.0178 138.695 90.6136Z" fill="#7FC991"/>
</g>
<mask id="mask2_313_10994" style="mask-type:luminance" maskUnits="userSpaceOnUse" x="56" y="23" width="87" height="87">
<path d="M99.5967 23.5691C75.7301 23.5691 56.3823 42.9168 56.3823 66.7836C56.3823 90.6503 75.7299 109.998 99.5967 109.998C123.463 109.998 142.811 90.6503 142.811 66.7836C142.811 42.9168 123.463 23.5691 99.5967 23.5691ZM99.5967 89.6761C86.9534 89.6761 76.7041 79.4268 76.7041 66.7835C76.7041 54.1402 86.9534 43.8908 99.5967 43.8908C112.24 43.8908 122.489 54.1402 122.489 66.7835C122.489 79.4268 112.24 89.6761 99.5967 89.6761Z" fill="white"/>
</mask>
<g mask="url(#mask2_313_10994)">
<path d="M56.6619 50.9634L99.5964 66.7836L139.873 45.005C121.033 10.1641 70.3218 14.3425 56.6619 50.9634Z" fill="white"/>
</g>
<mask id="mask3_313_10994" style="mask-type:luminance" maskUnits="userSpaceOnUse" x="56" y="23" width="87" height="87">
<path d="M99.5967 23.5691C75.7301 23.5691 56.3823 42.9168 56.3823 66.7836C56.3823 90.6503 75.7299 109.998 99.5967 109.998C123.463 109.998 142.811 90.6503 142.811 66.7836C142.811 42.9168 123.463 23.5691 99.5967 23.5691ZM99.5967 89.6761C86.9534 89.6761 76.7041 79.4268 76.7041 66.7835C76.7041 54.1402 86.9534 43.8908 99.5967 43.8908C112.24 43.8908 122.489 54.1402 122.489 66.7835C122.489 79.4268 112.24 89.6761 99.5967 89.6761Z" fill="white"/>
</mask>
<g mask="url(#mask3_313_10994)">
<path d="M92.5313 112.017L99.5962 66.7836L56.6617 50.9634C46.452 78.335 64.5733 107.61 92.5313 112.017Z" fill="#FC8B8C"/>
</g>
<mask id="mask4_313_10994" style="mask-type:luminance" maskUnits="userSpaceOnUse" x="56" y="23" width="87" height="87">
<path d="M99.5967 23.5691C75.7301 23.5691 56.3823 42.9168 56.3823 66.7836C56.3823 90.6503 75.7299 109.998 99.5967 109.998C123.463 109.998 142.811 90.6503 142.811 66.7836C142.811 42.9168 123.463 23.5691 99.5967 23.5691ZM99.5967 89.6761C86.9534 89.6761 76.7041 79.4268 76.7041 66.7835C76.7041 54.1402 86.9534 43.8908 99.5967 43.8908C112.24 43.8908 122.489 54.1402 122.489 66.7835C122.489 79.4268 112.24 89.6761 99.5967 89.6761Z" fill="white"/>
</mask>
<g mask="url(#mask4_313_10994)">
<path d="M140.721 90.1509C148.483 76.5082 148.925 59.6624 141.906 45.6322L141.931 45.6187L141.209 44.2822C141.194 44.2552 141.178 44.2291 141.164 44.202L140.573 43.1026L140.55 43.1144C135.993 35.1959 129.494 28.8812 121.679 24.8093C114.025 20.8217 105.324 19.0371 96.5119 19.6495C78.1537 20.9244 62.6867 32.1315 55.7928 49.0242L55.7675 49.0148L55.2389 50.4325L54.7058 51.8614L54.7311 51.8708C50.4149 64.6915 51.8452 78.6729 58.7343 90.4657C65.7387 102.456 77.3657 110.695 90.8005 113.256L90.7965 113.282L92.2933 113.518C92.295 113.518 93.7977 113.755 93.7977 113.755L93.8017 113.729C95.745 113.971 97.6918 114.094 99.6341 114.094C106.465 114.094 113.231 112.601 119.523 109.671C127.578 105.921 134.345 100.058 139.179 92.6685L139.21 92.6866L139.507 92.1995L139.515 92.2033L139.991 91.4053C140.066 91.2836 140.155 91.1323 140.205 91.046L140.237 90.9926C140.245 90.9789 140.253 90.965 140.261 90.9513L140.743 90.1644L140.721 90.1509ZM136.141 48.8518C137.041 48.3812 138.072 47.8422 139.296 47.201C145.734 60.2445 145.313 75.8511 138.156 88.5264C138.156 88.5276 137.867 88.3563 137.867 88.3563C136.271 87.4111 135.578 87.0004 132.397 85.0609L102.641 66.8644L127.343 53.5073C130.97 51.5553 132.457 50.778 136.141 48.8518ZM58.6417 50.0739C65.1149 34.3171 79.572 23.8713 96.7223 22.6802C113.667 21.5022 129.264 29.7967 137.792 44.4031L125.897 50.8352C123.441 52.1565 120.008 54.0143 114.26 57.1242C110.578 59.1166 105.944 61.6237 100.01 64.8331L99.6429 65.0314L98.4467 64.2999L98.3815 64.7171L79.5708 57.7859L58.6417 50.0739ZM61.3575 88.9333C54.9281 77.9275 53.5783 64.8869 57.5807 52.921L85.8622 63.3419L97.9032 67.7788L91.2692 110.254C78.7402 107.836 67.8992 100.131 61.3575 88.9333ZM94.2704 110.728L100.746 69.2676L117.597 79.5741C124.392 83.73 128.278 86.1072 130.725 87.5997L136.543 91.1571C127.263 105.232 110.957 112.78 94.2704 110.728Z" fill="url(#paint2_linear_313_10994)"/>
</g>
<path d="M219.306 262.083C287.781 262.083 343.29 206.573 343.29 138.099C343.29 69.6245 287.781 14.115 219.306 14.115C150.832 14.115 95.3225 69.6245 95.3225 138.099C95.3225 206.573 150.832 262.083 219.306 262.083Z" fill="#6B56F6"/>
<path d="M219.144 239.546C274.454 239.546 319.291 194.708 319.291 139.398C319.291 84.0883 274.454 39.2507 219.144 39.2507C163.834 39.2507 118.996 84.0883 118.996 139.398C118.996 194.708 163.834 239.546 219.144 239.546Z" fill="#232E4F"/>
<path d="M219.306 231.589C271.837 231.589 314.421 189.005 314.421 136.474C314.421 83.9438 271.837 41.3594 219.306 41.3594C166.776 41.3594 124.191 83.9438 124.191 136.474C124.191 189.005 166.776 231.589 219.306 231.589Z" fill="white"/>
<path d="M219.31 139.817C218.151 139.817 217.026 139.214 216.408 138.138C215.489 136.537 216.042 134.495 217.643 133.576L253.671 112.899C255.271 111.98 257.314 112.533 258.233 114.134C259.152 115.735 258.598 117.778 256.998 118.696L220.97 139.373C220.446 139.674 219.874 139.817 219.31 139.817Z" fill="#6B56F6"/>
<path d="M219.309 138.981C218.437 138.981 217.59 138.525 217.128 137.713L189.482 89.0981C188.798 87.8947 189.219 86.3646 190.422 85.6804C191.625 84.9961 193.155 85.4169 193.84 86.6201L221.485 135.235C222.17 136.439 221.749 137.969 220.546 138.653C220.154 138.875 219.729 138.981 219.309 138.981Z" fill="#F4901F"/>
<path d="M223.906 136.474C223.906 139.014 221.847 141.074 219.307 141.074C216.766 141.074 214.707 139.014 214.707 136.474C214.707 133.934 216.766 131.875 219.307 131.875C221.847 131.875 223.906 133.934 223.906 136.474Z" fill="#212D51"/>
<path d="M214.416 72.051H210.08V57.6763H205.897V54.6135L214.416 53.3008V72.051Z" fill="#212D51"/>
<path d="M233.566 72.0512H220.452V69.2199L226.475 62.8884C227.238 62.0134 227.8 61.2327 228.161 60.5463C228.521 59.86 228.701 59.2638 228.701 58.7574C228.701 58.0367 228.519 57.4621 228.154 57.033C227.79 56.604 227.243 56.3895 226.514 56.3895C225.861 56.3895 225.349 56.6662 224.976 57.2195C224.603 57.7729 224.416 58.4787 224.416 59.3364H220.169L220.143 59.2592C220.1 57.5262 220.667 56.057 221.842 54.8516C223.017 53.6463 224.575 53.0435 226.514 53.0435C228.573 53.0435 230.179 53.5497 231.333 54.562C232.487 55.5744 233.064 56.9601 233.064 58.7186C233.064 59.9025 232.757 60.9495 232.144 61.8586C231.53 62.7681 230.4 64.1194 228.753 65.9123L226.218 68.6278L226.256 68.705H233.566V72.0512Z" fill="#212D51"/>
<path d="M220.529 197.294C221.267 197.294 221.923 197.357 222.498 197.481C223.073 197.605 223.708 197.805 224.403 198.079L223.682 201.245C223.081 201.065 222.556 200.93 222.105 200.84C221.655 200.75 221.138 200.704 220.555 200.704C219.525 200.704 218.699 201.067 218.078 201.792C217.455 202.517 217.157 203.574 217.183 204.964L217.222 205.029C217.599 204.6 218.101 204.265 218.727 204.025C219.353 203.785 220.066 203.664 220.863 203.664C222.536 203.664 223.838 204.267 224.769 205.472C225.7 206.678 226.165 208.22 226.165 210.099C226.165 211.952 225.55 213.494 224.319 214.725C223.088 215.957 221.515 216.572 219.602 216.572C217.552 216.572 215.896 215.899 214.635 214.552C213.373 213.205 212.743 211.36 212.743 209.018V205.248C212.743 202.777 213.47 200.833 214.924 199.418C216.379 198.002 218.247 197.294 220.529 197.294ZM219.667 207.011C219.066 207.011 218.549 207.092 218.116 207.254C217.683 207.417 217.342 207.643 217.093 207.933V209.035C217.093 210.386 217.314 211.422 217.756 212.144C218.198 212.865 218.813 213.226 219.603 213.226C220.254 213.226 220.787 212.919 221.198 212.304C221.61 211.689 221.816 210.958 221.816 210.112C221.816 209.164 221.617 208.41 221.218 207.85C220.819 207.291 220.302 207.011 219.667 207.011Z" fill="#212D51"/>
<path d="M142.885 141.101C143.752 141.101 144.469 140.79 145.035 140.168C145.601 139.546 145.884 138.686 145.884 137.588V136.764C145.463 137.279 144.975 137.667 144.417 137.929C143.859 138.19 143.267 138.321 142.641 138.321C140.934 138.321 139.597 137.744 138.632 136.591C137.667 135.437 137.185 133.86 137.185 131.861C137.185 129.999 137.794 128.418 139.012 127.119C140.23 125.819 141.8 125.169 143.722 125.169C145.609 125.169 147.165 125.851 148.387 127.215C149.61 128.579 150.221 130.454 150.221 132.839V137.292C150.221 139.454 149.526 141.187 148.136 142.491C146.746 143.795 144.996 144.447 142.885 144.447C142.242 144.447 141.575 144.376 140.884 144.235C140.194 144.093 139.535 143.894 138.909 143.636L139.359 140.535C139.96 140.732 140.528 140.876 141.064 140.966C141.601 141.056 142.208 141.101 142.885 141.101ZM143.593 135.194C144.083 135.194 144.522 135.108 144.913 134.937C145.303 134.765 145.627 134.529 145.884 134.229V132.298C145.884 131.072 145.68 130.135 145.273 129.487C144.865 128.839 144.344 128.515 143.709 128.515C143.04 128.515 142.51 128.854 142.12 129.531C141.73 130.209 141.535 130.986 141.535 131.861C141.535 132.89 141.706 133.703 142.049 134.3C142.392 134.896 142.907 135.194 143.593 135.194Z" fill="#212D51"/>
<path d="M292.317 132.993H294.363C295.143 132.993 295.744 132.783 296.164 132.363C296.585 131.942 296.795 131.359 296.795 130.613C296.795 130.021 296.606 129.523 296.229 129.12C295.851 128.717 295.302 128.515 294.582 128.515C294.015 128.515 293.518 128.678 293.089 129.004C292.66 129.33 292.445 129.75 292.445 130.265H288.224L288.198 130.188C288.147 128.695 288.734 127.485 289.961 126.559C291.188 125.632 292.677 125.169 294.427 125.169C296.46 125.169 298.086 125.634 299.304 126.565C300.523 127.496 301.132 128.815 301.132 130.522C301.132 131.372 300.868 132.155 300.34 132.871C299.813 133.587 299.107 134.147 298.224 134.551C299.227 134.92 300.012 135.479 300.579 136.23C301.145 136.981 301.428 137.879 301.428 138.926C301.428 140.642 300.772 141.991 299.459 142.973C298.147 143.956 296.469 144.447 294.427 144.447C292.669 144.447 291.131 143.986 289.814 143.063C288.497 142.141 287.86 140.805 287.903 139.055L287.928 138.978H292.175C292.175 139.578 292.409 140.082 292.876 140.49C293.344 140.897 293.912 141.101 294.582 141.101C295.345 141.101 295.954 140.887 296.409 140.457C296.864 140.029 297.091 139.488 297.091 138.836C297.091 137.927 296.853 137.264 296.377 136.848C295.901 136.432 295.229 136.224 294.363 136.224H292.317V132.993Z" fill="#212D51"/>
<path d="M432.232 163.259C424.504 163.259 418.217 156.972 418.217 149.243C418.217 141.515 424.504 135.228 432.232 135.228C439.96 135.228 446.248 141.515 446.248 149.243C446.248 156.972 439.96 163.259 432.232 163.259ZM432.232 138.57C426.347 138.57 421.559 143.358 421.559 149.243C421.559 155.129 426.347 159.917 432.232 159.917C438.118 159.917 442.906 155.129 442.906 149.243C442.906 143.358 438.118 138.57 432.232 138.57Z" fill="#F4901F"/>
<path d="M414.653 163.259C406.925 163.259 400.637 156.972 400.637 149.243C400.637 141.515 406.925 135.228 414.653 135.228C422.381 135.228 428.668 141.515 428.668 149.243C428.668 156.972 422.381 163.259 414.653 163.259ZM414.653 138.57C408.767 138.57 403.979 143.358 403.979 149.243C403.979 155.129 408.767 159.917 414.653 159.917C420.538 159.917 425.326 155.129 425.326 149.243C425.326 143.358 420.538 138.57 414.653 138.57Z" fill="#F4901F"/>
<path d="M395.585 163.259C387.857 163.259 381.57 156.972 381.57 149.243C381.57 141.515 387.857 135.228 395.585 135.228C403.313 135.228 409.601 141.515 409.601 149.243C409.601 156.972 403.313 163.259 395.585 163.259ZM395.585 138.57C389.7 138.57 384.912 143.358 384.912 149.243C384.912 155.129 389.7 159.917 395.585 159.917C401.471 159.917 406.259 155.129 406.259 149.243C406.259 143.358 401.471 138.57 395.585 138.57Z" fill="#F4901F"/>
<path d="M378.006 163.259C370.278 163.259 363.991 156.972 363.991 149.243C363.991 141.515 370.278 135.228 378.006 135.228C385.734 135.228 392.021 141.515 392.021 149.243C392.021 156.972 385.734 163.259 378.006 163.259ZM378.006 138.57C372.121 138.57 367.333 143.358 367.333 149.243C367.333 155.129 372.121 159.917 378.006 159.917C383.892 159.917 388.68 155.129 388.68 149.243C388.68 143.358 383.892 138.57 378.006 138.57Z" fill="#F4901F"/>
<path d="M359.741 163.259C352.013 163.259 345.725 156.972 345.725 149.243C345.725 141.515 352.013 135.228 359.741 135.228C367.469 135.228 373.756 141.515 373.756 149.243C373.756 156.972 367.469 163.259 359.741 163.259ZM359.741 138.57C353.855 138.57 349.067 143.358 349.067 149.243C349.067 155.129 353.855 159.917 359.741 159.917C365.626 159.917 370.414 155.129 370.414 149.243C370.414 143.358 365.626 138.57 359.741 138.57Z" fill="#F4901F"/>
<path d="M342.161 163.259C334.433 163.259 328.146 156.972 328.146 149.243C328.146 141.515 334.433 135.228 342.161 135.228C349.89 135.228 356.177 141.515 356.177 149.243C356.177 156.972 349.89 163.259 342.161 163.259ZM342.161 138.57C336.276 138.57 331.488 143.358 331.488 149.243C331.488 155.129 336.276 159.917 342.161 159.917C348.047 159.917 352.835 155.129 352.835 149.243C352.835 143.358 348.047 138.57 342.161 138.57Z" fill="#F4901F"/>
<path d="M322.519 163.259C314.791 163.259 308.503 156.972 308.503 149.243C308.503 141.515 314.791 135.228 322.519 135.228C330.247 135.228 336.534 141.515 336.534 149.243C336.534 156.972 330.247 163.259 322.519 163.259ZM322.519 138.57C316.633 138.57 311.845 143.358 311.845 149.243C311.845 155.129 316.633 159.917 322.519 159.917C328.404 159.917 333.192 155.129 333.192 149.243C333.192 143.358 328.404 138.57 322.519 138.57Z" fill="#F4901F"/>
<path d="M446.444 270.097H251.648C249.421 270.097 247.955 268.292 248.372 266.065L269.536 153.276C269.954 151.049 272.098 149.244 274.325 149.244H469.122C471.349 149.244 472.815 151.049 472.398 153.276L451.234 266.065C450.816 268.292 448.672 270.097 446.444 270.097Z" fill="#212D51"/>
<path d="M450.089 270.097H255.292C253.065 270.097 251.599 268.292 252.017 266.065L273.181 153.276C273.599 151.049 275.743 149.244 277.97 149.244H472.766C474.993 149.244 476.46 151.049 476.042 153.276L454.878 266.065C454.46 268.292 452.316 270.097 450.089 270.097Z" fill="#8C4AF2"/>
<path d="M489.392 270.097H294.596C292.369 270.097 290.245 268.292 289.852 266.065L269.964 153.276C269.572 151.049 271.059 149.244 273.286 149.244H468.082C470.309 149.244 472.433 151.049 472.826 153.276L492.713 266.065C493.106 268.292 491.619 270.097 489.392 270.097Z" fill="#212D51"/>
<path d="M493.453 270.097H298.656C296.429 270.097 294.305 268.292 293.913 266.065L274.025 153.276C273.632 151.049 275.119 149.244 277.346 149.244H472.143C474.37 149.244 476.494 151.049 476.886 153.276L496.774 266.065C497.167 268.292 495.68 270.097 493.453 270.097Z" fill="#6123C1"/>
<path d="M441.486 160.26C442.158 162.135 441.571 163.656 440.175 163.656C438.779 163.656 437.103 162.135 436.431 160.26C435.759 158.384 436.346 156.864 437.742 156.864C439.138 156.864 440.814 158.384 441.486 160.26Z" fill="#212D51"/>
<path d="M423.647 160.26C424.319 162.135 423.732 163.656 422.336 163.656C420.94 163.656 419.264 162.135 418.592 160.26C417.921 158.384 418.507 156.864 419.903 156.864C421.299 156.864 422.975 158.384 423.647 160.26Z" fill="#212D51"/>
<path d="M403.842 160.26C404.513 162.135 403.926 163.656 402.531 163.656C401.135 163.656 399.459 162.135 398.787 160.26C398.115 158.384 398.702 156.864 400.098 156.864C401.494 156.864 403.17 158.384 403.842 160.26Z" fill="#212D51"/>
<path d="M386.003 160.26C386.675 162.135 386.088 163.656 384.692 163.656C383.296 163.656 381.62 162.135 380.949 160.26C380.277 158.384 380.864 156.864 382.26 156.864C383.655 156.864 385.331 158.384 386.003 160.26Z" fill="#212D51"/>
<path d="M368.761 160.578C369.433 162.454 368.846 163.974 367.45 163.974C366.054 163.974 364.378 162.454 363.707 160.578C363.035 158.703 363.622 157.183 365.018 157.183C366.414 157.183 368.089 158.703 368.761 160.578Z" fill="#212D51"/>
<path d="M351.852 160.578C352.524 162.454 351.937 163.974 350.541 163.974C349.145 163.974 347.469 162.454 346.797 160.578C346.125 158.703 346.712 157.183 348.108 157.183C349.504 157.183 351.18 158.703 351.852 160.578Z" fill="#212D51"/>
<path d="M333.009 160.578C333.681 162.454 333.094 163.974 331.698 163.974C330.303 163.974 328.626 162.454 327.955 160.578C327.283 158.703 327.87 157.183 329.266 157.183C330.662 157.183 332.338 158.703 333.009 160.578Z" fill="#212D51"/>
<path d="M438.127 161.764C437.535 161.764 436.961 161.449 436.658 160.892C436.217 160.081 436.516 159.066 437.327 158.625C440.768 156.752 442.906 153.157 442.906 149.244C442.906 143.358 438.118 138.57 432.232 138.57C431.309 138.57 430.561 137.822 430.561 136.899C430.561 135.977 431.309 135.228 432.232 135.228C439.96 135.228 446.247 141.516 446.247 149.244C446.247 154.382 443.442 159.102 438.925 161.561C438.671 161.699 438.397 161.764 438.127 161.764Z" fill="#F4901F"/>
<path d="M420.474 161.804C419.878 161.804 419.301 161.484 419 160.922C418.564 160.108 418.87 159.095 419.684 158.66C423.164 156.796 425.326 153.188 425.326 149.243C425.326 143.533 420.862 138.85 415.164 138.582C414.242 138.538 413.53 137.756 413.573 136.834C413.617 135.912 414.401 135.204 415.321 135.244C422.805 135.596 428.668 141.745 428.668 149.243C428.668 154.421 425.83 159.158 421.262 161.605C421.01 161.74 420.74 161.804 420.474 161.804Z" fill="#F4901F"/>
<path d="M400.838 162.089C400.211 162.089 399.61 161.735 399.325 161.13C398.932 160.295 399.29 159.299 400.125 158.906C403.851 157.152 406.258 153.359 406.258 149.243C406.258 143.527 401.79 138.844 396.085 138.581C395.163 138.539 394.451 137.757 394.493 136.835C394.535 135.913 395.312 135.195 396.239 135.243C403.731 135.588 409.6 141.738 409.6 149.243C409.6 154.647 406.44 159.627 401.549 161.93C401.319 162.038 401.076 162.089 400.838 162.089Z" fill="#F4901F"/>
<path d="M382.904 162.25C382.258 162.25 381.643 161.873 381.37 161.242C381.003 160.395 381.393 159.411 382.24 159.045C386.152 157.352 388.679 153.505 388.679 149.244C388.679 143.527 384.21 138.844 378.505 138.581C377.583 138.539 376.87 137.757 376.913 136.836C376.955 135.914 377.738 135.196 378.658 135.243C386.152 135.587 392.021 141.737 392.021 149.244C392.021 154.839 388.703 159.89 383.567 162.112C383.351 162.205 383.126 162.25 382.904 162.25Z" fill="#F4901F"/>
<path d="M365.313 161.933C364.704 161.933 364.116 161.598 363.821 161.017C363.404 160.194 363.734 159.189 364.557 158.772C368.17 156.941 370.414 153.29 370.414 149.244C370.414 143.558 365.97 138.875 360.298 138.584C359.376 138.537 358.667 137.752 358.714 136.83C358.762 135.908 359.551 135.203 360.469 135.247C367.92 135.629 373.756 141.777 373.756 149.244C373.756 154.557 370.81 159.35 366.067 161.753C365.825 161.875 365.567 161.933 365.313 161.933Z" fill="#F4901F"/>
<path d="M348.316 161.619C347.738 161.619 347.176 161.318 346.867 160.781C346.406 159.982 346.681 158.96 347.48 158.5C350.783 156.597 352.835 153.05 352.835 149.243C352.835 143.702 348.681 139.134 343.172 138.617C342.254 138.531 341.579 137.716 341.665 136.797C341.751 135.879 342.565 135.201 343.485 135.29C346.944 135.614 350.146 137.209 352.501 139.782C354.871 142.371 356.177 145.731 356.177 149.243C356.177 154.242 353.484 158.898 349.149 161.395C348.886 161.547 348.599 161.619 348.316 161.619Z" fill="#F4901F"/>
<path d="M329.284 161.243C328.74 161.243 328.206 160.977 327.885 160.488C327.379 159.717 327.594 158.681 328.365 158.175C331.388 156.191 333.192 152.852 333.192 149.243C333.192 143.892 329.197 139.342 323.9 138.658C322.985 138.54 322.339 137.702 322.457 136.787C322.575 135.872 323.412 135.226 324.327 135.344C331.286 136.242 336.534 142.217 336.534 149.243C336.534 153.982 334.166 158.366 330.199 160.969C329.916 161.154 329.598 161.243 329.284 161.243Z" fill="#F4901F"/>
<path d="M487.101 266.393H303.701C301.761 266.393 299.911 264.82 299.569 262.88L283.578 172.192C283.236 170.252 284.531 168.679 286.471 168.679H469.872C471.812 168.679 473.662 170.252 474.004 172.192L489.995 262.88C490.337 264.82 489.042 266.393 487.101 266.393Z" fill="white"/>
<path d="M482.967 260.483H305.751L305.727 260.345L290.605 174.588H467.822L467.846 174.726L482.967 260.483ZM306.031 260.149H482.569L467.541 174.922H291.004L306.031 260.149Z" fill="#8C4AF2"/>
<path d="M479.751 243.037H302.874V243.371H479.751V243.037Z" fill="#8C4AF2"/>
<path d="M476.734 225.925H299.857V226.259H476.734V225.925Z" fill="#8C4AF2"/>
<path d="M473.716 208.812H296.839V209.146H473.716V208.812Z" fill="#8C4AF2"/>
<path d="M470.699 191.7H293.822V192.035H470.699V191.7Z" fill="#8C4AF2"/>
<path d="M442.565 174.748L442.236 174.806L457.318 260.366L457.647 260.308L442.565 174.748Z" fill="#8C4AF2"/>
<path d="M417.296 174.747L416.968 174.805L432.05 260.365L432.379 260.307L417.296 174.747Z" fill="#8C4AF2"/>
<path d="M392.029 174.745L391.7 174.803L406.783 260.363L407.112 260.305L392.029 174.745Z" fill="#8C4AF2"/>
<path d="M366.761 174.744L366.432 174.802L381.515 260.362L381.844 260.304L366.761 174.744Z" fill="#8C4AF2"/>
<path d="M341.493 174.743L341.164 174.801L356.246 260.361L356.575 260.303L341.493 174.743Z" fill="#8C4AF2"/>
<path d="M316.225 174.742L315.896 174.8L330.978 260.36L331.307 260.302L316.225 174.742Z" fill="#8C4AF2"/>
<path d="M462.97 185.561H457.022C454.754 185.561 452.571 183.704 452.171 181.436C451.771 179.167 453.299 177.311 455.568 177.311H461.515C463.784 177.311 465.967 179.167 466.367 181.436C466.767 183.704 465.238 185.561 462.97 185.561Z" fill="#F39892"/>
<path d="M471.216 220.092H460.953C459.872 220.092 458.831 219.207 458.64 218.125L457.879 213.809C457.688 212.727 458.417 211.842 459.498 211.842H469.762C470.843 211.842 471.884 212.727 472.075 213.809L472.836 218.125C473.027 219.207 472.298 220.092 471.216 220.092Z" fill="#F39892"/>
<path d="M340.978 206.471H327.021C325.478 206.471 323.993 205.208 323.721 203.666L322.562 197.095C322.29 195.552 323.33 194.289 324.873 194.289H338.83C340.373 194.289 341.858 195.552 342.13 197.095L343.288 203.666C343.561 205.209 342.521 206.471 340.978 206.471Z" fill="white"/>
<path d="M338.709 204.755H328.684C327.576 204.755 326.509 203.849 326.313 202.74L325.481 198.02C325.286 196.912 326.033 196.005 327.141 196.005H337.166C338.275 196.005 339.342 196.912 339.537 198.02L340.369 202.74C340.565 203.849 339.818 204.755 338.709 204.755Z" fill="#DCC5FF"/>
<path d="M451.301 257.692H437.344C435.801 257.692 434.316 256.43 434.044 254.887L432.885 248.316C432.613 246.773 433.653 245.51 435.196 245.51H449.153C450.696 245.51 452.181 246.773 452.453 248.316L453.612 254.887C453.884 256.43 452.844 257.692 451.301 257.692Z" fill="white"/>
<path d="M449.033 255.977H439.007C437.899 255.977 436.832 255.07 436.637 253.961L435.805 249.241C435.609 248.133 436.356 247.226 437.464 247.226H447.49C448.598 247.226 449.665 248.133 449.86 249.241L450.693 253.961C450.888 255.07 450.141 255.977 449.033 255.977Z" fill="#DCC5FF"/>
<path d="M391.756 197.838H380.821C380.082 197.838 379.371 197.234 379.241 196.495C379.111 195.757 379.609 195.153 380.347 195.153H391.282C392.021 195.153 392.732 195.757 392.862 196.495C392.992 197.234 392.494 197.838 391.756 197.838Z" fill="white"/>
<path d="M392.5 202.059H381.565C380.826 202.059 380.115 201.455 379.985 200.716C379.855 199.977 380.353 199.373 381.091 199.373H392.026C392.765 199.373 393.476 199.977 393.606 200.716C393.736 201.455 393.238 202.059 392.5 202.059Z" fill="white"/>
<path d="M376.565 248.772H365.63C364.891 248.772 364.18 248.168 364.05 247.429C363.92 246.69 364.417 246.086 365.156 246.086H376.091C376.83 246.086 377.54 246.69 377.671 247.429C377.801 248.167 377.303 248.772 376.565 248.772Z" fill="white"/>
<path d="M377.309 252.992H366.374C365.635 252.992 364.925 252.388 364.794 251.649C364.664 250.911 365.162 250.306 365.9 250.306H376.835C377.574 250.306 378.285 250.911 378.415 251.649C378.545 252.388 378.047 252.992 377.309 252.992Z" fill="white"/>
<path d="M314.244 216.83H303.309C302.57 216.83 301.859 216.226 301.729 215.487C301.599 214.749 302.097 214.145 302.835 214.145H313.77C314.509 214.145 315.22 214.749 315.35 215.487C315.48 216.226 314.982 216.83 314.244 216.83Z" fill="white"/>
<path d="M314.988 221.051H304.053C303.314 221.051 302.603 220.446 302.473 219.708C302.343 218.969 302.841 218.365 303.579 218.365H314.514C315.253 218.365 315.964 218.969 316.094 219.708C316.224 220.446 315.726 221.051 314.988 221.051Z" fill="white"/>
<path d="M348.813 241.288H332.615C331.213 241.288 329.864 240.141 329.617 238.74L328.335 231.466C328.088 230.065 329.032 228.918 330.433 228.918H346.632C348.033 228.918 349.382 230.065 349.629 231.466L350.912 238.74C351.159 240.141 350.214 241.288 348.813 241.288Z" fill="#9CD499"/>
<path d="M338.985 238.31C338.9 238.31 338.817 238.278 338.755 238.219L335.118 234.776C334.984 234.649 334.978 234.437 335.105 234.303C335.232 234.17 335.444 234.164 335.578 234.291L338.958 237.49L344.085 231.425C344.204 231.284 344.416 231.267 344.556 231.386C344.697 231.505 344.715 231.716 344.596 231.857L339.24 238.192C339.18 238.262 339.095 238.305 339.003 238.31C338.997 238.31 338.991 238.31 338.985 238.31Z" fill="#DCC5FF"/>
<path d="M415.31 189.203H399.112C397.71 189.203 396.362 188.057 396.114 186.655L394.832 179.382C394.585 177.98 395.529 176.834 396.93 176.834H413.129C414.53 176.834 415.879 177.98 416.126 179.382L417.409 186.655C417.656 188.057 416.712 189.203 415.31 189.203Z" fill="#9CD499"/>
<path d="M405.482 186.226C405.397 186.226 405.314 186.193 405.252 186.134L401.615 182.691C401.481 182.565 401.475 182.353 401.602 182.219C401.729 182.085 401.941 182.079 402.075 182.206L405.455 185.406L410.582 179.341C410.702 179.2 410.913 179.182 411.053 179.301C411.194 179.421 411.212 179.631 411.093 179.772L405.737 186.107C405.678 186.177 405.592 186.22 405.5 186.225C405.494 186.226 405.488 186.226 405.482 186.226Z" fill="#DCC5FF"/>
<path d="M420.408 234.672C420.968 237.85 418.846 240.427 415.668 240.427C412.489 240.427 409.458 237.85 408.897 234.672C408.337 231.493 410.459 228.917 413.638 228.917C416.816 228.916 419.848 231.493 420.408 234.672Z" fill="white"/>
<path d="M348.973 252.225C349.533 255.403 347.411 257.98 344.233 257.98C341.054 257.98 338.023 255.403 337.463 252.225C336.902 249.046 339.025 246.47 342.203 246.47C345.381 246.47 348.413 249.046 348.973 252.225Z" fill="white"/>
<path d="M62.3265 138.742H88.6552C88.6552 153.186 76.77 165.071 62.3265 165.071C47.8829 165.071 35.9976 153.186 35.9976 138.742C35.9976 124.299 47.8828 112.413 62.3265 112.413V138.742Z" fill="white"/>
<path d="M93.0648 135.056C93.0648 120.515 81.2771 108.727 66.7361 108.727V135.056H93.0648Z" fill="#F4901F"/>
<path d="M56.7929 228.213H40.5088V262.579H56.7929V228.213Z" fill="white"/>
<path d="M107.127 192.306H90.8425V262.579H107.127V192.306Z" fill="white"/>
<path d="M132.294 226.438H116.01V262.579H132.294V226.438Z" fill="white"/>
<path d="M157.461 216.208H141.177V262.579H157.461V216.208Z" fill="white"/>
<path d="M81.9597 205.523H65.6758V262.579H81.9597V205.523Z" fill="white"/>
<path d="M182.712 174.919H166.428V262.579H182.712V174.919Z" fill="white"/>
<path d="M56.7557 229.842H42.1367V264.207H56.7557V229.842Z" fill="url(#paint3_linear_313_10994)"/>
<path d="M107.09 193.934H92.4709V264.208H107.09V193.934Z" fill="url(#paint4_linear_313_10994)"/>
<path d="M132.257 228.066H117.638V264.208H132.257V228.066Z" fill="url(#paint5_linear_313_10994)"/>
<path d="M157.424 217.836H142.805V264.208H157.424V217.836Z" fill="url(#paint6_linear_313_10994)"/>
<path d="M81.9232 207.152H67.3042V264.208H81.9232V207.152Z" fill="url(#paint7_linear_313_10994)"/>
<path d="M182.675 176.547H168.056V264.207H182.675V176.547Z" fill="url(#paint8_linear_313_10994)"/>
<path d="M35.9998 218.808C35.2065 218.808 34.426 218.433 33.9391 217.732C33.1494 216.595 33.4308 215.033 34.5678 214.243L98.3506 169.941C99.3928 169.216 100.813 169.386 101.656 170.336L125.096 196.77L175.309 148.747C176.309 147.79 177.896 147.825 178.853 148.826C179.81 149.826 179.774 151.413 178.774 152.37L126.679 202.191C126.187 202.662 125.522 202.914 124.844 202.884C124.164 202.856 123.524 202.553 123.072 202.043L99.3821 175.328L37.4276 218.36C36.9917 218.663 36.4933 218.808 35.9998 218.808Z" fill="#F4901F"/>
<path d="M176.184 163.891C176.018 163.891 175.849 163.875 175.679 163.84C174.323 163.563 173.449 162.238 173.726 160.882L175.527 152.08L165.923 153.052C164.549 153.19 163.317 152.188 163.177 150.81C163.038 149.433 164.042 148.204 165.419 148.064L178.414 146.75C179.208 146.67 179.991 146.971 180.525 147.563C181.06 148.154 181.281 148.965 181.121 149.746L178.637 161.887C178.395 163.074 177.35 163.891 176.184 163.891Z" fill="#F37168"/>
<defs>
<linearGradient id="paint0_linear_313_10994" x1="260.799" y1="0" x2="260.799" y2="275.006" gradientUnits="userSpaceOnUse">
<stop stop-color="#B98BFF"/>
<stop offset="0.479" stop-color="#9A76FB"/>
<stop offset="1" stop-color="#806DFF"/>
</linearGradient>
<linearGradient id="paint1_linear_313_10994" x1="267.382" y1="249.824" x2="267.382" y2="282.028" gradientUnits="userSpaceOnUse">
<stop stop-color="#B98BFF"/>
<stop offset="1" stop-color="#E4D3FF"/>
</linearGradient>
<linearGradient id="paint2_linear_313_10994" x1="99.5785" y1="19.5317" x2="99.5785" y2="114.094" gradientUnits="userSpaceOnUse">
<stop stop-color="#B98BFF"/>
<stop offset="0.479" stop-color="#9A76FB"/>
<stop offset="1" stop-color="#806DFF"/>
</linearGradient>
<linearGradient id="paint3_linear_313_10994" x1="49.4462" y1="229.842" x2="49.4462" y2="264.207" gradientUnits="userSpaceOnUse">
<stop stop-color="#5DF888"/>
<stop offset="1" stop-color="#7FC991"/>
</linearGradient>
<linearGradient id="paint4_linear_313_10994" x1="99.7805" y1="193.934" x2="99.7805" y2="264.208" gradientUnits="userSpaceOnUse">
<stop stop-color="#5DF888"/>
<stop offset="1" stop-color="#7FC991"/>
</linearGradient>
<linearGradient id="paint5_linear_313_10994" x1="124.947" y1="228.066" x2="124.947" y2="264.208" gradientUnits="userSpaceOnUse">
<stop stop-color="#5DF888"/>
<stop offset="1" stop-color="#7FC991"/>
</linearGradient>
<linearGradient id="paint6_linear_313_10994" x1="150.114" y1="217.836" x2="150.114" y2="264.208" gradientUnits="userSpaceOnUse">
<stop stop-color="#5DF888"/>
<stop offset="1" stop-color="#7FC991"/>
</linearGradient>
<linearGradient id="paint7_linear_313_10994" x1="74.6137" y1="207.152" x2="74.6137" y2="264.208" gradientUnits="userSpaceOnUse">
<stop stop-color="#5DF888"/>
<stop offset="1" stop-color="#7FC991"/>
</linearGradient>
<linearGradient id="paint8_linear_313_10994" x1="175.366" y1="176.547" x2="175.366" y2="264.207" gradientUnits="userSpaceOnUse">
<stop stop-color="#5DF888"/>
<stop offset="1" stop-color="#7FC991"/>
</linearGradient>
</defs>
</svg>
