<svg width="155" height="54" viewBox="0 0 155 54" fill="none" xmlns="http://www.w3.org/2000/svg">
<path d="M155 21C155 12.7157 148.284 6 140 6H132C123.716 6 117 12.7157 117 21V44H140C148.284 44 155 37.2843 155 29V21Z" fill="white"/>
<path d="M146.688 28.8086C146.688 30.3581 146.395 31.8164 145.809 33.1836C145.223 34.5378 144.422 35.7227 143.406 36.7383C142.391 37.7409 141.199 38.5352 139.832 39.1211C138.478 39.707 137.026 40 135.477 40C133.927 40 132.469 39.707 131.102 39.1211C129.747 38.5352 128.562 37.7409 127.547 36.7383C126.544 35.7227 125.75 34.5378 125.164 33.1836C124.578 31.8164 124.285 30.3581 124.285 28.8086V11.9922H129.871V28.8086C129.871 29.5768 130.014 30.2995 130.301 30.9766C130.6 31.6536 131.004 32.2461 131.512 32.7539C132.02 33.2617 132.612 33.6654 133.289 33.9648C133.979 34.2513 134.708 34.3945 135.477 34.3945C136.245 34.3945 136.967 34.2513 137.645 33.9648C138.335 33.6654 138.934 33.2617 139.441 32.7539C139.949 32.2461 140.346 31.6536 140.633 30.9766C140.932 30.2995 141.082 29.5768 141.082 28.8086V11.9922H146.688V28.8086Z" fill="#8C4AF2"/>
<path d="M122 10H140V26H122V10Z" fill="white"/>
<path d="M131 10H149V23H131V10Z" fill="white"/>
<circle cx="127" cy="20" r="3" fill="#8C4AF2"/>
<path d="M0.957031 24.3906C0.957031 23.2318 1.17839 22.1445 1.62109 21.1289C2.0638 20.1133 2.66276 19.2279 3.41797 18.4727C4.1862 17.7044 5.07812 17.099 6.09375 16.6562C7.10938 16.2135 8.19661 15.9922 9.35547 15.9922H22.207V21.5977H9.35547C8.96484 21.5977 8.60026 21.6693 8.26172 21.8125C7.92318 21.9557 7.6237 22.1576 7.36328 22.418C7.11589 22.6654 6.92057 22.9583 6.77734 23.2969C6.63411 23.6354 6.5625 24 6.5625 24.3906C6.5625 24.7812 6.63411 25.1523 6.77734 25.5039C6.92057 25.8424 7.11589 26.1419 7.36328 26.4023C7.6237 26.6497 7.92318 26.8451 8.26172 26.9883C8.60026 27.1315 8.96484 27.2031 9.35547 27.2031H14.9609C16.1198 27.2031 17.207 27.4245 18.2227 27.8672C19.2513 28.2969 20.1432 28.8958 20.8984 29.6641C21.6667 30.4193 22.2656 31.3112 22.6953 32.3398C23.138 33.3555 23.3594 34.4427 23.3594 35.6016C23.3594 36.7604 23.138 37.8477 22.6953 38.8633C22.2656 39.8789 21.6667 40.7708 20.8984 41.5391C20.1432 42.2943 19.2513 42.8932 18.2227 43.3359C17.207 43.7786 16.1198 44 14.9609 44H2.51953V38.3945H14.9609C15.3516 38.3945 15.7161 38.3229 16.0547 38.1797C16.3932 38.0365 16.6862 37.8411 16.9336 37.5938C17.194 37.3333 17.3958 37.0339 17.5391 36.6953C17.6823 36.3568 17.7539 35.9922 17.7539 35.6016C17.7539 35.2109 17.6823 34.8464 17.5391 34.5078C17.3958 34.1693 17.194 33.8763 16.9336 33.6289C16.6862 33.3685 16.3932 33.1667 16.0547 33.0234C15.7161 32.8802 15.3516 32.8086 14.9609 32.8086H9.35547C8.19661 32.8086 7.10938 32.5872 6.09375 32.1445C5.07812 31.7018 4.1862 31.1029 3.41797 30.3477C2.66276 29.5794 2.0638 28.6875 1.62109 27.6719C1.17839 26.6432 0.957031 25.5495 0.957031 24.3906ZM44.7656 27.2422L40.8594 31.168C40.6641 30.6211 40.3971 30.1328 40.0586 29.7031C39.7201 29.2604 39.3359 28.8893 38.9062 28.5898C38.4896 28.2904 38.0339 28.0625 37.5391 27.9062C37.0443 27.75 36.5365 27.6719 36.0156 27.6719C35.2865 27.6719 34.5964 27.8216 33.9453 28.1211C33.3073 28.4206 32.7474 28.8438 32.2656 29.3906C31.7969 29.9245 31.4258 30.5625 31.1523 31.3047C30.8789 32.0469 30.7422 32.8672 30.7422 33.7656C30.7422 34.4948 30.8789 35.1784 31.1523 35.8164C31.4258 36.4544 31.7969 37.0143 32.2656 37.4961C32.7474 37.9779 33.3073 38.3555 33.9453 38.6289C34.5964 38.9023 35.2865 39.0391 36.0156 39.0391C36.5365 39.0391 37.0378 38.9674 37.5195 38.8242C38.0013 38.681 38.4505 38.4792 38.8672 38.2188C39.2969 37.9453 39.6745 37.6198 40 37.2422C40.3385 36.8516 40.612 36.4219 40.8203 35.9531L44.7266 39.8789C44.2318 40.582 43.6589 41.2135 43.0078 41.7734C42.3698 42.3333 41.6732 42.8086 40.918 43.1992C40.1758 43.5898 39.388 43.8828 38.5547 44.0781C37.7344 44.2865 36.888 44.3906 36.0156 44.3906C34.5443 44.3906 33.1576 44.1172 31.8555 43.5703C30.5664 43.0104 29.4336 42.2487 28.457 41.2852C27.4935 40.3216 26.7318 39.1953 26.1719 37.9062C25.612 36.6172 25.332 35.237 25.332 33.7656C25.332 32.1641 25.612 30.6667 26.1719 29.2734C26.7318 27.8802 27.4935 26.6693 28.457 25.6406C29.4336 24.599 30.5664 23.7786 31.8555 23.1797C33.1576 22.5807 34.5443 22.2812 36.0156 22.2812C36.888 22.2812 37.7409 22.3919 38.5742 22.6133C39.4206 22.8346 40.2214 23.1602 40.9766 23.5898C41.7448 24.0065 42.4479 24.5208 43.0859 25.1328C43.737 25.7448 44.2969 26.4479 44.7656 27.2422ZM52.7148 44H47.3828V14.7617H52.7148V24C53.3529 23.5182 54.0104 23.1797 54.6875 22.9844C55.3646 22.776 56.0547 22.6719 56.7578 22.6719C58.0469 22.6719 59.2578 22.9193 60.3906 23.4141C61.5234 23.8958 62.5065 24.5664 63.3398 25.4258C64.1862 26.2721 64.8503 27.2682 65.332 28.4141C65.8268 29.5469 66.0742 30.7578 66.0742 32.0469V44H60.7031V32.0469H60.7422C60.7422 31.5 60.638 30.9857 60.4297 30.5039C60.2214 30.0091 59.9349 29.5794 59.5703 29.2148C59.2057 28.8503 58.7826 28.5638 58.3008 28.3555C57.819 28.1471 57.3047 28.043 56.7578 28.043C56.1979 28.043 55.6706 28.1471 55.1758 28.3555C54.681 28.5638 54.2513 28.8503 53.8867 29.2148C53.5221 29.5794 53.2357 30.0091 53.0273 30.5039C52.819 30.9857 52.7148 31.5 52.7148 32.0469V44ZM78.2031 38.8828C78.4115 38.9479 78.6198 38.9935 78.8281 39.0195C79.0365 39.0326 79.2448 39.0391 79.4531 39.0391C79.974 39.0391 80.4753 38.9674 80.957 38.8242C81.4388 38.681 81.888 38.4792 82.3047 38.2188C82.7344 37.9453 83.112 37.6198 83.4375 37.2422C83.776 36.8516 84.0495 36.4219 84.2578 35.9531L88.1641 39.8789C87.6693 40.582 87.0964 41.2135 86.4453 41.7734C85.8073 42.3333 85.1107 42.8086 84.3555 43.1992C83.6133 43.5898 82.8255 43.8828 81.9922 44.0781C81.1719 44.2865 80.3255 44.3906 79.4531 44.3906C77.9818 44.3906 76.5951 44.1172 75.293 43.5703C74.0039 43.0234 72.8711 42.2617 71.8945 41.2852C70.931 40.3086 70.1693 39.1497 69.6094 37.8086C69.0495 36.4544 68.7695 34.9701 68.7695 33.3555C68.7695 31.7018 69.0495 30.1914 69.6094 28.8242C70.1693 27.457 70.931 26.2917 71.8945 25.3281C72.8711 24.3646 74.0039 23.6159 75.293 23.082C76.5951 22.5482 77.9818 22.2812 79.4531 22.2812C80.3255 22.2812 81.1784 22.3854 82.0117 22.5938C82.8451 22.8021 83.6328 23.1016 84.375 23.4922C85.1302 23.8828 85.8333 24.3646 86.4844 24.9375C87.1354 25.4974 87.7083 26.1289 88.2031 26.832L78.2031 38.8828ZM80.9375 27.8867C80.6901 27.7956 80.4427 27.737 80.1953 27.7109C79.9609 27.6849 79.7135 27.6719 79.4531 27.6719C78.724 27.6719 78.0339 27.8086 77.3828 28.082C76.7448 28.3424 76.1849 28.7201 75.7031 29.2148C75.2344 29.7096 74.8633 30.3086 74.5898 31.0117C74.3164 31.7018 74.1797 32.4831 74.1797 33.3555C74.1797 33.5508 74.1862 33.7721 74.1992 34.0195C74.2253 34.2669 74.2578 34.5208 74.2969 34.7812C74.349 35.0286 74.4076 35.2695 74.4727 35.5039C74.5378 35.7383 74.6224 35.9466 74.7266 36.1289L80.9375 27.8867ZM110.957 44H109.668L107.598 41.1289C107.09 41.5846 106.549 42.0143 105.977 42.418C105.417 42.8086 104.824 43.1536 104.199 43.4531C103.574 43.7396 102.93 43.9674 102.266 44.1367C101.615 44.306 100.951 44.3906 100.273 44.3906C98.8021 44.3906 97.4154 44.1172 96.1133 43.5703C94.8242 43.0104 93.6914 42.2422 92.7148 41.2656C91.7513 40.276 90.9896 39.1107 90.4297 37.7695C89.8698 36.4154 89.5898 34.944 89.5898 33.3555C89.5898 31.7799 89.8698 30.3151 90.4297 28.9609C90.9896 27.6068 91.7513 26.4349 92.7148 25.4453C93.6914 24.4557 94.8242 23.681 96.1133 23.1211C97.4154 22.5612 98.8021 22.2812 100.273 22.2812C100.742 22.2812 101.224 22.3203 101.719 22.3984C102.227 22.4766 102.715 22.6068 103.184 22.7891C103.665 22.9583 104.115 23.1862 104.531 23.4727C104.948 23.7591 105.299 24.1107 105.586 24.5273V14.7617H110.957V44ZM105.586 33.3555C105.586 32.6263 105.443 31.9232 105.156 31.2461C104.883 30.556 104.505 29.9505 104.023 29.4297C103.542 28.8958 102.975 28.4727 102.324 28.1602C101.686 27.8346 101.003 27.6719 100.273 27.6719C99.5443 27.6719 98.8542 27.8021 98.2031 28.0625C97.5651 28.3229 97.0052 28.7005 96.5234 29.1953C96.0547 29.6771 95.6836 30.2695 95.4102 30.9727C95.1367 31.6758 95 32.4701 95 33.3555C95 34.1237 95.1367 34.8529 95.4102 35.543C95.6836 36.2331 96.0547 36.8385 96.5234 37.3594C97.0052 37.8802 97.5651 38.2904 98.2031 38.5898C98.8542 38.8893 99.5443 39.0391 100.273 39.0391C101.003 39.0391 101.686 38.8828 102.324 38.5703C102.975 38.2448 103.542 37.8216 104.023 37.3008C104.505 36.7669 104.883 36.1615 105.156 35.4844C105.443 34.7943 105.586 34.0846 105.586 33.3555Z" fill="white"/>
<path d="M142.388 16.3945C142.747 16.5073 143.012 16.5892 143.183 16.6401C143.355 16.6911 143.491 16.7348 143.592 16.7711C143.706 16.8051 143.806 16.8348 143.892 16.8603C143.991 16.8835 144.134 16.9259 144.321 16.9877C144.521 17.0472 144.8 17.1333 145.159 17.2461C145.528 17.3434 146.04 17.4832 146.695 17.6655C146.84 17.7211 146.929 17.8408 146.961 18.0247C146.982 18.1428 147 18.3224 147.016 18.5634C147.031 18.8044 147.021 19.0566 146.987 19.3199C146.963 19.5679 146.908 19.7942 146.822 19.9989C146.734 20.1904 146.592 20.3036 146.395 20.3383C146.224 20.3684 145.969 20.3457 145.631 20.27C145.293 20.1943 144.908 20.0861 144.477 19.9456C144.057 19.7895 143.621 19.6227 143.17 19.445C142.717 19.2543 142.284 19.0666 141.873 18.882C141.474 18.695 141.12 18.5274 140.809 18.3791C140.51 18.2154 140.303 18.0825 140.191 17.9806C140.093 17.8894 140.032 17.8122 140.008 17.7489C139.98 17.6724 139.96 17.5948 139.946 17.516L139.813 16.3007C139.794 16.1145 139.802 15.9708 139.838 15.8697C139.888 15.7662 139.969 15.6503 140.082 15.5221C140.208 15.3916 140.424 15.1977 140.73 14.9405C141.035 14.6702 141.383 14.3786 141.774 14.0658C142.164 13.7399 142.579 13.4093 143.021 13.0741C143.46 12.7257 143.88 12.4148 144.278 12.1414C144.687 11.8526 145.051 11.6124 145.369 11.4208C145.688 11.2293 145.919 11.1207 146.063 11.0953C146.221 11.0675 146.315 11.1389 146.345 11.3096C146.431 11.7954 146.48 12.1928 146.494 12.5018C146.508 12.8107 146.487 13.0718 146.43 13.285C146.37 13.485 146.285 13.6557 146.175 13.797C146.062 13.9253 145.923 14.0581 145.758 14.1956C145.579 14.3354 145.388 14.4775 145.183 14.6219C144.991 14.7641 144.762 14.9197 144.494 15.0888C144.239 15.2557 143.934 15.4449 143.578 15.6565C143.236 15.8658 142.839 16.1118 142.388 16.3945Z" fill="#8C4AF2"/>
</svg>
