<svg width="195" height="195" viewBox="0 0 195 195" fill="none" xmlns="http://www.w3.org/2000/svg">
<path opacity="0.18" d="M104.315 14.2756C126.602 13.7292 146.95 22.9063 158.504 38.0718C181.734 68.5635 186.039 99.0311 170.452 115.045C167.201 118.385 157.917 126.406 144.182 129.277C122.029 133.908 112.394 120.105 94.0803 123.658C69.8457 128.361 67.2686 156.309 50.9814 157.146C35.4387 157.945 18.4227 133.489 15.9114 110.402C11.5641 70.4352 49.0614 19.6431 98.3009 14.6531C100.339 14.4468 102.344 14.3239 104.315 14.2756Z" fill="#B98BFF"/>
<path d="M58.9268 49.1396L59.1132 50.2964L59.0847 50.2995L58.9268 49.1396Z" fill="#292069"/>
<path d="M59.2483 52.6895C59.2374 53.4901 59.1699 54.2912 59.0455 55.0837L58.9023 55.0595C59.0447 54.2771 59.1313 53.4835 59.1617 52.6875L59.2483 52.6895Z" fill="#292069"/>
<path d="M58.5012 57.4273C58.2594 58.1933 57.9618 58.9425 57.61 59.6656L57.4014 59.5622C57.7578 58.8544 58.0616 58.1192 58.3108 57.3657L58.5012 57.4273Z" fill="#292069"/>
<path d="M56.3945 61.7486C55.937 62.4112 55.4277 63.0387 54.8704 63.6214L54.6562 63.4135C55.21 62.8499 55.7186 62.2408 56.1772 61.5957L56.3945 61.7486Z" fill="#292069"/>
<path d="M53.0597 65.2246C52.4104 65.7047 51.7189 66.129 50.9943 66.4878L50.8438 66.1824C51.5516 65.8357 52.2279 65.425 52.8643 64.959L53.0597 65.2246Z" fill="#292069"/>
<path d="M48.7334 67.361C47.9538 67.5802 47.1559 67.726 46.3529 67.811L46.3154 67.4507C47.1005 67.3711 47.8797 67.2323 48.6387 67.0225L48.7334 67.361Z" fill="#292069"/>
<path d="M43.9368 67.8913C43.1306 67.8628 42.3272 67.7817 41.5312 67.6507L41.5944 67.272C42.3733 67.4038 43.1611 67.4869 43.9504 67.5184L43.9368 67.8913Z" fill="#292069"/>
<path d="M39.1755 67.0978C38.4045 66.8576 37.6483 66.5643 36.9248 66.1958L37.0941 65.8623C37.7957 66.2156 38.5343 66.4988 39.2886 66.7297L39.1755 67.0978Z" fill="#292069"/>
<path d="M34.9222 64.7917C34.6344 64.4941 34.3735 64.1552 34.2073 63.7559C34.0334 63.3561 34.0096 62.8975 34.0732 62.4868L34.4218 62.5367C34.3676 62.9131 34.3902 63.2816 34.5373 63.6186C34.68 63.9583 34.9144 64.2644 35.1815 64.5378L34.9222 64.7917Z" fill="#292069"/>
<path d="M35.251 60.3064C35.4327 60.1808 35.6769 60.0845 35.9245 60.1129C36.1675 60.1352 36.3773 60.2401 36.5559 60.3672C36.9128 60.627 37.1698 60.9869 37.3211 61.3953L37.0099 61.5056C36.8839 61.1667 36.6534 60.8489 36.3609 60.641C36.2158 60.5376 36.0528 60.4628 35.8953 60.4503C35.7408 60.4323 35.5879 60.4901 35.4432 60.5883L35.251 60.3064Z" fill="#292069"/>
<path d="M36.7925 63.7909C36.3315 64.4719 35.7376 65.046 35.0707 65.5128L34.917 65.2948C35.5511 64.8381 36.1162 64.2745 36.5421 63.626L36.7925 63.7909Z" fill="#292069"/>
<path d="M32.8149 66.416C31.999 66.5089 31.1769 66.3837 30.4082 66.1368L30.4683 65.9453C31.2194 66.1754 32.0134 66.2831 32.7868 66.184L32.8149 66.416Z" fill="#292069"/>
<path d="M28.2435 65.0725C27.5715 64.6318 26.9479 64.1224 26.3691 63.5698L26.4288 63.5059C27.0177 64.0409 27.6483 64.5304 28.3219 64.9493L28.2435 65.0725Z" fill="#292069"/>
<path d="M24.7653 61.7924L24.0723 60.8486L24.7875 61.7745L24.7653 61.7924Z" fill="#292069"/>
<path d="M154.109 25.5234L155.199 25.9528L155.188 25.979L154.109 25.5234Z" fill="#292069"/>
<path d="M157.327 27.0571C158.01 27.4752 158.664 27.9416 159.282 28.4533L159.188 28.5641C158.588 28.0423 157.95 27.563 157.28 27.1308L157.327 27.0571Z" fill="#292069"/>
<path d="M161.019 30.1187C161.555 30.7173 162.047 31.3553 162.49 32.0269L162.294 32.1537C161.867 31.486 161.39 30.8495 160.869 30.2509L161.019 30.1187Z" fill="#292069"/>
<path d="M163.661 34.1348C163.997 34.8664 164.277 35.6246 164.494 36.4014L164.206 36.4798C164.004 35.7158 163.74 34.9678 163.419 34.2444L163.661 34.1348Z" fill="#292069"/>
<path d="M164.949 38.7764C165.031 39.5798 165.043 40.391 164.982 41.1975L164.642 41.171C164.705 40.3855 164.697 39.5938 164.621 38.8087L164.949 38.7764Z" fill="#292069"/>
<path d="M164.58 43.5863C164.37 44.3682 164.089 45.1291 163.752 45.8631L163.423 45.7114C163.755 44.9957 164.033 44.2547 164.24 43.4946L164.58 43.5863Z" fill="#292069"/>
<path d="M162.587 47.9832C162.152 48.6618 161.672 49.3115 161.153 49.9289L160.859 49.6812C161.37 49.0787 161.844 48.4434 162.274 47.7808L162.587 47.9832Z" fill="#292069"/>
<path d="M159.475 51.6728C158.875 52.2133 158.237 52.7141 157.551 53.1482L157.351 52.8323C158.012 52.4091 158.633 51.9185 159.216 51.3877L159.475 51.6728Z" fill="#292069"/>
<path d="M155.322 54.1544C154.92 54.25 154.495 54.3014 154.067 54.241C153.635 54.1868 153.228 53.9731 152.907 53.7086L153.128 53.4341C153.424 53.6728 153.752 53.8416 154.117 53.8869C154.482 53.9376 154.865 53.8923 155.237 53.8018L155.322 54.1544Z" fill="#292069"/>
<path d="M151.633 51.5831C151.618 51.3623 151.659 51.1034 151.81 50.9052C151.953 50.7075 152.15 50.5808 152.351 50.4918C152.756 50.3175 153.197 50.2801 153.625 50.3581L153.561 50.6822C153.206 50.6174 152.815 50.6537 152.487 50.7988C152.324 50.8709 152.176 50.9727 152.085 51.1022C151.99 51.2258 151.962 51.3869 151.973 51.5616L151.633 51.5831Z" fill="#292069"/>
<path d="M155.416 52.0347C155.767 52.7788 155.957 53.5826 156.019 54.3938L155.753 54.4144C155.684 53.636 155.487 52.8622 155.146 52.1653L155.416 52.0347Z" fill="#292069"/>
<path d="M155.644 56.7956C155.308 57.5448 154.78 58.1879 154.176 58.723L154.042 58.5737C154.623 58.0448 155.121 57.4169 155.43 56.7017L155.644 56.7956Z" fill="#292069"/>
<path d="M152.156 60.0419C151.434 60.3948 150.678 60.671 149.907 60.887L149.883 60.8032C150.644 60.5699 151.386 60.2774 152.09 59.9116L152.156 60.0419Z" fill="#292069"/>
<path d="M147.56 61.3591L146.396 61.4738L147.557 61.3311L147.56 61.3591Z" fill="#292069"/>
<path d="M54.6738 35.2036C54.6738 35.2036 47.2116 62.9353 47.9838 64.2325C48.7564 65.5296 67.0318 72.1191 72.9609 67.3903C72.9609 67.3903 72.5136 63.057 73.1204 59.5782C73.7273 56.0994 77.7127 39.274 77.7127 39.274L54.6738 35.2036Z" fill="#F0EEFF"/>
<path d="M68.96 67.9786C69.5602 67.4751 70.1136 66.9677 70.6061 66.3991C70.8569 66.1202 71.0894 65.8246 71.3081 65.5169C71.5351 65.2127 71.7262 64.8855 71.9481 64.5571C71.8783 64.9432 71.7559 65.3258 71.5683 65.6749C71.3924 66.0313 71.1588 66.357 70.8986 66.6565C70.6346 66.9533 70.3409 67.2236 70.0145 67.4482C69.6912 67.6748 69.3402 67.8678 68.96 67.9786Z" fill="#292069"/>
<path d="M56.7061 39.9233L58.7664 40.3399L60.8209 40.7728L64.9292 41.6284C66.2973 41.9178 67.6701 42.1795 69.0433 42.4377C70.4181 42.6881 71.7955 42.9228 73.1921 43.0437C72.8423 43.0453 72.4905 43.0488 72.1395 43.0375L71.0877 42.977C70.3896 42.9061 69.6911 42.8312 68.9961 42.7337C67.605 42.5441 66.2244 42.2914 64.8508 42.0098C63.4788 41.7212 62.1103 41.4163 60.7535 41.0633C59.3955 40.715 58.0422 40.3492 56.7061 39.9233Z" fill="#292069"/>
<path d="M56.2207 43.1582L58.2811 43.5747L60.3356 44.0076L64.4439 44.8633C65.812 45.1527 67.1848 45.4144 68.558 45.6725C69.9327 45.9229 71.3102 46.1577 72.7068 46.2786C72.357 46.2802 72.0052 46.2837 71.6542 46.2724L70.6023 46.2119C69.9042 46.1409 69.2058 46.066 68.5108 45.9685C67.1196 45.779 65.739 45.5263 64.3655 45.2447C62.9934 44.9561 61.6249 44.6511 60.2681 44.2982C58.9105 43.9499 57.5572 43.5841 56.2207 43.1582Z" fill="#292069"/>
<path d="M55.7354 46.3926L57.7957 46.8091L59.8502 47.242L63.9585 48.0977C65.3266 48.387 66.6994 48.6487 68.0726 48.9069C69.4474 49.1573 70.8248 49.3921 72.2214 49.513C71.8716 49.5145 71.5198 49.518 71.1688 49.5067L70.117 49.4463C69.4189 49.3753 68.7204 49.3004 68.0254 49.2029C66.6343 49.0134 65.2537 48.7607 63.8801 48.4791C62.5081 48.1905 61.1396 47.8855 59.7828 47.5325C58.4252 47.1843 57.0719 46.8185 55.7354 46.3926Z" fill="#292069"/>
<path d="M55.249 49.6274L57.3094 50.044L59.3639 50.4769L63.4722 51.3325C64.8403 51.6219 66.2131 51.8836 67.5863 52.1418C68.961 52.3922 70.3385 52.6269 71.7351 52.7478C71.3853 52.7494 71.0335 52.7529 70.6825 52.7416L69.6307 52.6811C68.9326 52.6102 68.2341 52.5353 67.5391 52.4378C66.148 52.2482 64.7674 51.9955 63.3938 51.7139C62.0218 51.4253 60.6533 51.1204 59.2964 50.7674C57.9385 50.4191 56.5852 50.0533 55.249 49.6274Z" fill="#292069"/>
<path d="M54.7637 52.8618L56.824 53.2783L58.8786 53.7112L62.9868 54.5669C64.3549 54.8563 65.7277 55.118 67.1009 55.3761C68.4757 55.6265 69.8532 55.8613 71.2497 55.9822C70.8999 55.9838 70.5481 55.9873 70.1971 55.976L69.1453 55.9155C68.4472 55.8445 67.7487 55.7697 67.0537 55.6722C65.6626 55.4826 64.282 55.2299 62.9084 54.9483C61.5364 54.6597 60.1679 54.3547 58.8111 54.0018C57.4535 53.6535 56.1002 53.2877 54.7637 52.8618Z" fill="#292069"/>
<path d="M54.2783 56.0967L56.3387 56.5132L58.3932 56.9461L62.5015 57.8018C63.8696 58.0911 65.2424 58.3528 66.6156 58.611C67.9903 58.8614 69.3678 59.0962 70.7644 59.2171C70.4146 59.2186 70.0628 59.2221 69.7118 59.2108L68.66 59.1504C67.9619 59.0794 67.2634 59.0045 66.5684 58.907C65.1773 58.7175 63.7967 58.4648 62.4231 58.1832C61.0511 57.8946 59.6826 57.5896 58.3257 57.2366C56.9678 56.8884 55.6149 56.5226 54.2783 56.0967Z" fill="#292069"/>
<path d="M53.792 59.3315L55.8524 59.7477L57.9069 60.1806L62.0151 61.0362C63.3833 61.3256 64.7561 61.5873 66.1293 61.8455C67.504 62.0959 68.8815 62.3306 70.2781 62.4515C69.9282 62.4531 69.5765 62.4566 69.2255 62.4453L68.1736 62.3849C67.4755 62.3139 66.777 62.239 66.0821 62.1415C64.6909 61.952 63.3103 61.6992 61.9368 61.4177C60.5647 61.1291 59.1962 60.8241 57.8394 60.4711C56.4818 60.1232 55.1285 59.7574 53.792 59.3315Z" fill="#292069"/>
<path d="M157.021 102.699C157.021 102.699 164.342 96.0315 163.357 92.704C162.372 89.3769 164.057 85.6918 161.785 81.6783C159.513 77.6648 158.48 78.3454 153.14 77.379C147.799 76.4129 146.976 73.5039 142.244 77.1426C137.605 80.7103 138.609 82.9388 144.471 83.4626C147.98 83.7761 152.299 82.7633 152.702 89.1402C153.196 96.9503 157.021 102.699 157.021 102.699Z" fill="#7FC991"/>
<path d="M160.069 117.108C158.298 115.809 160.528 110.726 163.939 108.289C166.295 106.606 168.284 108.494 171.674 106.346C174.068 104.828 174.137 103.214 175.912 103.04C178.01 102.834 178.555 105.024 181.733 106.062C184.792 107.062 185.758 105.513 187.603 106.537C190.986 108.415 192.612 116.33 190.164 118.403C188.666 119.672 185.906 114.989 182.194 116.043C180.344 116.569 180.234 117.9 178.42 118.14C175.878 118.475 174.894 116.021 172.352 115.279C167.44 113.845 162.05 118.561 160.069 117.108Z" fill="#7FC991"/>
<path d="M143.154 151.089C144.545 146.373 146.137 141.714 147.941 137.136C148.826 134.84 149.803 132.58 150.822 130.34C151.838 128.097 152.941 125.893 154.152 123.745C155.38 121.612 156.708 119.508 158.371 117.669L159.633 116.313C160.065 115.872 160.533 115.467 160.982 115.043C161.212 114.837 161.427 114.614 161.67 114.423L162.396 113.846C162.88 113.463 163.358 113.071 163.882 112.74C165.906 111.327 168.121 110.178 170.458 109.387C172.795 108.617 175.254 108.122 177.716 108.234C175.254 108.186 172.82 108.743 170.521 109.567C168.215 110.389 166.037 111.557 164.054 112.986C163.542 113.32 163.074 113.715 162.6 114.101L161.886 114.676C161.647 114.866 161.435 115.089 161.209 115.293C160.767 115.715 160.305 116.118 159.879 116.556L158.637 117.905C157.006 119.723 155.703 121.812 154.49 123.938C153.278 126.066 152.167 128.257 151.143 130.488C150.112 132.715 149.145 134.973 148.218 137.247C147.29 139.521 146.405 141.813 145.57 144.124C144.721 146.429 143.909 148.749 143.154 151.089Z" fill="#40635B"/>
<path d="M147.945 132.972C149.075 128.906 150.253 124.854 151.442 120.805L155.05 108.673C156.269 104.634 157.48 100.593 158.589 96.5258C159.136 94.492 159.664 92.448 159.998 90.3716C160.162 89.3354 160.278 88.2839 160.199 87.238C160.148 86.7177 160.041 86.2002 159.837 85.7177C159.636 85.2338 159.329 84.7954 158.962 84.4175C159.343 84.7814 159.669 85.2104 159.891 85.694C160.113 86.1772 160.235 86.7005 160.302 87.2274C160.412 88.2863 160.324 89.351 160.187 90.3993C159.89 92.4967 159.393 94.554 158.88 96.6019C157.828 100.693 156.613 104.736 155.424 108.784L151.728 120.891C150.48 124.922 149.229 128.952 147.945 132.972Z" fill="#40635B"/>
<path d="M149.533 136.363C149.533 136.363 149.863 128.1 152.555 127.03C155.246 125.961 156.796 122.954 160.602 122.375C164.408 121.797 164.494 122.826 167.882 125.833C171.271 128.84 173.604 127.879 173.656 132.862C173.707 137.746 171.727 138.237 168.36 134.66C166.344 132.518 164.782 129.161 160.388 132.185C155.008 135.889 149.533 136.363 149.533 136.363Z" fill="#7FC991"/>
<path d="M144.214 151.346C144.738 149.017 145.378 146.712 146.13 144.442C146.882 142.172 147.768 139.946 148.787 137.777C149.836 135.626 151.018 133.526 152.472 131.615C152.818 131.125 153.223 130.68 153.614 130.226C153.99 129.758 154.44 129.356 154.86 128.93C154.969 128.826 155.073 128.719 155.185 128.619L155.534 128.335L156.232 127.769C156.704 127.402 157.228 127.105 157.724 126.776L157.004 127.308C156.768 127.491 156.509 127.64 156.296 127.85L155.632 128.446L155.3 128.742C155.195 128.847 155.096 128.959 154.994 129.066C154.592 129.503 154.159 129.91 153.8 130.386C153.428 130.848 153.042 131.298 152.712 131.794C151.325 133.72 150.152 135.796 149.138 137.946C148.098 140.084 147.222 142.3 146.412 144.54L145.822 146.226L145.267 147.926L144.729 149.632L144.214 151.346Z" fill="#40635B"/>
<path d="M105.889 36.626H93.4355V47.4801H105.889V36.626Z" fill="#B98BFF"/>
<path d="M107.965 42.7956H91.3604V31.6049C96.662 30.0738 102.663 30.0738 107.965 31.6049V42.7956Z" fill="#6123C1"/>
<path d="M92.4082 32.2842C92.9955 32.4429 93.588 32.5677 94.1858 32.6621C94.7814 32.7654 95.38 32.8489 95.9818 32.9012C97.1838 33.0135 98.3892 33.0646 99.5955 33.0513C100.198 33.0279 100.802 33.0291 101.403 32.9737L102.306 32.9113C102.606 32.8762 102.907 32.8462 103.208 32.8181C104.411 32.6956 105.603 32.4835 106.804 32.2846C106.222 32.4566 105.635 32.6215 105.043 32.769C104.446 32.884 103.853 33.0345 103.248 33.1157C102.045 33.3278 100.822 33.4023 99.6006 33.4413C98.3783 33.4452 97.1537 33.3828 95.9447 33.198C94.7385 33.0123 93.5349 32.7518 92.4082 32.2842Z" fill="#B98BFF"/>
<path d="M92.4125 34.292C92.5061 35.5427 92.5232 36.7829 92.5673 38.0212C92.5817 38.6405 92.609 39.2586 92.6422 39.8756C92.6839 40.4918 92.7128 41.11 92.822 41.7273C92.5665 41.1513 92.4323 40.5269 92.3391 39.9072C92.2428 39.2856 92.1987 38.6592 92.1773 38.0337C92.1457 36.7821 92.1995 35.5295 92.4125 34.292Z" fill="#B98BFF"/>
<path d="M94.651 34.7134C94.7926 35.8884 94.8296 37.0596 94.8636 38.2296L94.8913 39.9834L94.908 40.859C94.9209 41.1492 94.9151 41.4448 94.9993 41.7267C94.7193 41.194 94.6631 40.5825 94.5875 40.0026C94.5196 39.4152 94.4903 38.8267 94.4736 38.2386C94.4521 37.0623 94.4857 35.8857 94.651 34.7134Z" fill="#B98BFF"/>
<path d="M97.1753 35.1162C97.2775 36.1657 97.2997 37.2039 97.3454 38.2405C97.3606 38.7588 97.3863 39.2756 97.4167 39.7919C97.4546 40.3075 97.4799 40.8243 97.5723 41.343C97.3344 40.8691 97.2038 40.3465 97.1145 39.8274C97.0213 39.3068 96.9784 38.7803 96.9561 38.2553C96.9222 37.2047 96.9714 36.1524 97.1753 35.1162Z" fill="#B98BFF"/>
<path d="M106.608 34.292C106.821 35.5295 106.875 36.7821 106.843 38.0337C106.821 38.6592 106.777 39.2859 106.681 39.9072C106.588 40.5269 106.454 41.1513 106.198 41.7273C106.307 41.11 106.336 40.4922 106.378 39.8756C106.412 39.2586 106.438 38.6405 106.453 38.0212C106.497 36.7825 106.514 35.5427 106.608 34.292Z" fill="#B98BFF"/>
<path d="M104.369 34.7134C104.535 35.8857 104.568 37.0623 104.546 38.239C104.53 38.8271 104.5 39.416 104.432 40.0029C104.357 40.5825 104.301 41.1944 104.021 41.7271C104.105 41.4452 104.099 41.1495 104.112 40.8594L104.129 39.9838L104.156 38.23C104.191 37.0592 104.228 35.8881 104.369 34.7134Z" fill="#B98BFF"/>
<path d="M101.845 35.1162C102.049 36.1524 102.098 37.2047 102.064 38.2553C102.042 38.7803 101.999 39.3064 101.906 39.8274C101.817 40.3465 101.686 40.8687 101.448 41.343C101.541 40.8243 101.566 40.3075 101.604 39.7919C101.634 39.276 101.66 38.7588 101.675 38.2405C101.72 37.2043 101.743 36.1661 101.845 35.1162Z" fill="#B98BFF"/>
<path d="M99.546 35.1162C99.7086 36.1536 99.7472 37.1933 99.7461 38.2331C99.739 38.753 99.7246 39.2732 99.6801 39.7931C99.6365 40.311 99.583 40.8371 99.4302 41.3426C99.4321 40.8203 99.3834 40.304 99.3759 39.7853C99.3584 39.267 99.3564 38.7487 99.3564 38.2304C99.3697 37.1934 99.4021 36.156 99.546 35.1162Z" fill="#B98BFF"/>
<path opacity="0.11" d="M102.045 159.413C128.924 159.413 150.714 158.972 150.714 158.428C150.714 157.884 128.924 157.443 102.045 157.443C75.1658 157.443 53.376 157.884 53.376 158.428C53.376 158.972 75.1658 159.413 102.045 159.413Z" fill="#1D1B23"/>
<path d="M100.625 151.911C128.242 151.911 150.63 129.523 150.63 101.906C150.63 74.2894 128.242 51.9014 100.625 51.9014C73.0081 51.9014 50.6201 74.2894 50.6201 101.906C50.6201 129.523 73.0081 151.911 100.625 151.911Z" fill="#E6EBFF"/>
<path d="M111.665 99.55C122.087 99.55 130.536 91.1012 130.536 80.679C130.536 70.2569 122.087 61.8081 111.665 61.8081C101.243 61.8081 92.7939 70.2569 92.7939 80.679C92.7939 91.1012 101.243 99.55 111.665 99.55Z" fill="#F0EEFF"/>
<path d="M56.3148 132.196C56.3148 132.196 47.4723 157.674 50.1583 158.403C52.8442 159.133 72.0306 143.002 72.0306 143.002L56.3148 132.196Z" fill="#6123C1"/>
<path d="M144.614 132.196C144.614 132.196 153.457 157.674 150.771 158.403C148.085 159.133 128.898 143.002 128.898 143.002L144.614 132.196Z" fill="#6123C1"/>
<path d="M100.625 45.8936C69.6901 45.8936 44.6123 70.9713 44.6123 101.907C44.6123 132.841 69.6901 157.919 100.625 157.919C131.56 157.919 156.638 132.842 156.638 101.907C156.638 70.9713 131.56 45.8936 100.625 45.8936ZM100.625 151.912C73.0082 151.912 50.6203 129.524 50.6203 101.907C50.6203 74.2895 73.0082 51.9015 100.625 51.9015C128.242 51.9015 150.63 74.2895 150.63 101.907C150.63 129.524 128.242 151.912 100.625 151.912Z" fill="#6123C1"/>
<path opacity="0.23" d="M98.6768 104.262H101.996L100.336 74.8037L98.6768 104.262Z" fill="#B98BFF"/>
<path d="M98.1855 103.587H101.505L99.845 74.1284L98.1855 103.587Z" fill="#B98BFF"/>
<path opacity="0.23" d="M98.7783 103.411L101.29 105.581L125.534 74.9858L98.7783 103.411Z" fill="#B98BFF"/>
<path d="M98.2871 102.735L100.798 104.905L125.043 74.3101L98.2871 102.735Z" fill="#B98BFF"/>
<path opacity="0.23" d="M99.8455 106.847C102.137 106.847 103.995 104.99 103.995 102.698C103.995 100.406 102.137 98.5488 99.8455 98.5488C97.554 98.5488 95.6963 100.406 95.6963 102.698C95.6963 104.99 97.554 106.847 99.8455 106.847Z" fill="#B98BFF"/>
<path opacity="0.23" d="M99.8455 108.422C102.137 108.422 103.995 106.565 103.995 104.273C103.995 101.982 102.137 100.124 99.8455 100.124C97.554 100.124 95.6963 101.982 95.6963 104.273C95.6963 106.565 97.554 108.422 99.8455 108.422Z" fill="#B98BFF"/>
<path d="M99.8455 107.736C102.137 107.736 103.995 105.879 103.995 103.587C103.995 101.296 102.137 99.438 99.8455 99.438C97.554 99.438 95.6963 101.296 95.6963 103.587C95.6963 105.879 97.554 107.736 99.8455 107.736Z" fill="#B98BFF"/>
<path opacity="0.23" d="M97.9954 104.848C98.3183 105.913 99.4832 106.438 100.382 106.182C101.622 105.829 102.197 104.038 101.435 103.023C100.947 102.372 99.9528 102.101 99.1186 102.461C98.2231 102.848 97.7013 103.879 97.9954 104.848Z" fill="#B98BFF"/>
<path d="M100.625 54.5029C100.867 54.9011 100.993 55.2997 101.083 55.6979C101.169 56.0961 101.209 56.4947 101.21 56.8928C101.21 57.291 101.171 57.6896 101.085 58.0878C100.994 58.486 100.868 58.8846 100.625 59.2828C100.381 58.8846 100.255 58.486 100.165 58.0878C100.079 57.6896 100.039 57.291 100.04 56.8928C100.041 56.4947 100.081 56.0961 100.166 55.6979C100.257 55.2997 100.383 54.9015 100.625 54.5029Z" fill="#B98BFF"/>
<path d="M76.9236 60.854C77.3324 61.0779 77.6404 61.3602 77.9181 61.6597C78.1915 61.9616 78.4255 62.2869 78.6252 62.6312C78.8253 62.9756 78.9898 63.3406 79.1146 63.7287C79.2355 64.1187 79.3256 64.5266 79.3135 64.9935C78.9033 64.7704 78.5952 64.4884 78.3179 64.1885C78.0445 63.8863 77.8105 63.5614 77.6124 63.2162C77.4139 62.8711 77.2493 62.506 77.1245 62.118C77.0036 61.7276 76.9135 61.3197 76.9236 60.854Z" fill="#B98BFF"/>
<path d="M59.5723 78.2049C60.0383 78.1944 60.4459 78.2849 60.8363 78.4054C61.2239 78.5302 61.589 78.6948 61.9341 78.8933C62.2796 79.0918 62.6045 79.3254 62.9064 79.5988C63.2063 79.8761 63.4883 80.1846 63.7113 80.5945C63.2445 80.6062 62.8366 80.5165 62.4466 80.3952C62.0589 80.2704 61.6939 80.1058 61.3495 79.9057C61.0047 79.706 60.6799 79.4724 60.378 79.1987C60.0781 78.9218 59.7961 78.6137 59.5723 78.2049Z" fill="#B98BFF"/>
<path d="M53.2217 101.907C53.6199 101.665 54.0185 101.539 54.4166 101.449C54.8148 101.363 55.2134 101.323 55.6116 101.322C56.0098 101.321 56.4084 101.361 56.8066 101.447C57.2048 101.538 57.6033 101.664 58.0015 101.907C57.6033 102.151 57.2048 102.277 56.8066 102.367C56.4084 102.453 56.0098 102.493 55.6116 102.492C55.2134 102.491 54.8148 102.451 54.4166 102.366C54.0181 102.275 53.6199 102.149 53.2217 101.907Z" fill="#B98BFF"/>
<path d="M59.5723 125.609C59.7961 125.2 60.0781 124.892 60.378 124.614C60.6799 124.341 61.0051 124.107 61.3495 123.907C61.6939 123.707 62.0589 123.542 62.4466 123.418C62.8366 123.297 63.2445 123.207 63.7113 123.218C63.4883 123.629 63.2063 123.937 62.9064 124.214C62.6041 124.487 62.2793 124.721 61.9341 124.919C61.589 125.118 61.2239 125.283 60.8363 125.407C60.4463 125.529 60.0383 125.619 59.5723 125.609Z" fill="#B98BFF"/>
<path d="M76.9227 142.959C76.9122 142.493 77.0027 142.086 77.1232 141.695C77.248 141.307 77.4125 140.943 77.6111 140.597C77.8096 140.252 78.0432 139.927 78.3166 139.625C78.5939 139.325 78.9023 139.043 79.3122 138.82C79.3239 139.287 79.2342 139.695 79.1133 140.085C78.9885 140.472 78.824 140.837 78.6239 141.182C78.4242 141.527 78.1906 141.852 77.9168 142.154C77.6395 142.453 77.3318 142.735 76.9227 142.959Z" fill="#B98BFF"/>
<path d="M100.625 149.31C100.382 148.912 100.257 148.513 100.166 148.115C100.081 147.717 100.041 147.318 100.04 146.92C100.039 146.522 100.079 146.123 100.165 145.725C100.255 145.327 100.381 144.928 100.625 144.53C100.868 144.928 100.994 145.327 101.085 145.725C101.171 146.123 101.211 146.522 101.21 146.92C101.209 147.318 101.169 147.717 101.083 148.115C100.992 148.514 100.867 148.912 100.625 149.31Z" fill="#B98BFF"/>
<path d="M124.327 142.959C123.918 142.735 123.61 142.453 123.332 142.154C123.059 141.851 122.825 141.526 122.625 141.182C122.425 140.838 122.26 140.473 122.136 140.085C122.015 139.695 121.925 139.287 121.937 138.82C122.347 139.043 122.655 139.325 122.932 139.625C123.206 139.927 123.44 140.252 123.638 140.597C123.836 140.942 124.001 141.307 124.126 141.695C124.247 142.086 124.337 142.493 124.327 142.959Z" fill="#B98BFF"/>
<path d="M141.678 125.608C141.212 125.619 140.804 125.528 140.414 125.408C140.026 125.283 139.661 125.118 139.316 124.92C138.971 124.721 138.646 124.488 138.344 124.214C138.044 123.937 137.762 123.629 137.539 123.219C138.006 123.207 138.414 123.297 138.804 123.418C139.191 123.543 139.557 123.707 139.901 123.908C140.246 124.107 140.571 124.341 140.872 124.615C141.172 124.892 141.454 125.199 141.678 125.608Z" fill="#B98BFF"/>
<path d="M148.029 101.907C147.631 102.149 147.232 102.275 146.834 102.365C146.436 102.451 146.037 102.491 145.639 102.491C145.241 102.492 144.842 102.452 144.444 102.367C144.046 102.277 143.647 102.15 143.249 101.907C143.647 101.663 144.046 101.537 144.444 101.447C144.842 101.361 145.241 101.321 145.639 101.322C146.037 101.323 146.436 101.362 146.834 101.448C147.232 101.539 147.631 101.665 148.029 101.907Z" fill="#B98BFF"/>
<path d="M141.678 78.2049C141.454 78.6137 141.172 78.9218 140.872 79.1994C140.57 79.4728 140.245 79.7068 139.901 79.9065C139.557 80.1066 139.191 80.2708 138.804 80.396C138.414 80.5169 138.006 80.607 137.539 80.5953C137.762 80.185 138.044 79.8769 138.344 79.5996C138.646 79.3262 138.971 79.0922 139.316 78.8941C139.661 78.6956 140.026 78.531 140.414 78.4062C140.804 78.2849 141.212 78.1944 141.678 78.2049Z" fill="#B98BFF"/>
<path d="M124.327 60.854C124.338 61.3201 124.247 61.7276 124.127 62.118C124.002 62.5057 123.837 62.8707 123.639 63.2162C123.44 63.5618 123.207 63.8866 122.933 64.1885C122.656 64.4884 122.347 64.7704 121.938 64.9935C121.926 64.5266 122.016 64.1187 122.136 63.7287C122.261 63.341 122.426 62.976 122.626 62.6312C122.826 62.2865 123.059 61.9616 123.333 61.6597C123.61 61.3598 123.918 61.0779 124.327 60.854Z" fill="#B98BFF"/>
<path opacity="0.23" d="M100.625 54.4968C127.791 54.4968 149.897 76.1598 150.611 103.153C150.623 102.739 150.63 102.323 150.63 101.906C150.63 74.2893 128.242 51.9014 100.625 51.9014C73.0081 51.9014 50.6201 74.2893 50.6201 101.906C50.6201 102.323 50.6275 102.739 50.6388 103.153C51.3537 76.1598 73.4593 54.4968 100.625 54.4968Z" fill="#B98BFF"/>
<path d="M97.9954 104.181C98.3183 105.246 99.4832 105.771 100.382 105.515C101.622 105.162 102.197 103.371 101.435 102.356C100.947 101.705 99.9528 101.434 99.1186 101.794C98.2231 102.181 97.7013 103.212 97.9954 104.181Z" fill="#6123C1"/>
<path d="M111.665 48.4824C115.373 49.1021 118.974 50.2897 122.431 51.7713C125.893 53.2572 129.176 55.1471 132.252 57.3233C133.777 58.4309 135.234 59.6294 136.636 60.8883C138.019 62.1675 139.349 63.506 140.574 64.9377C143.026 67.7968 145.123 70.955 146.81 74.3106C145.872 72.6839 144.925 71.0626 143.822 69.5455C142.766 67.9976 141.578 66.5449 140.348 65.1354C139.095 63.7447 137.783 62.4089 136.397 61.152C134.998 59.9106 133.543 58.7312 132.023 57.64C128.988 55.4533 125.726 53.5809 122.31 52.0451C120.605 51.2709 118.86 50.5814 117.083 49.9863C115.31 49.3798 113.505 48.8584 111.665 48.4824Z" fill="#B98BFF"/>
<path d="M99.7734 154.226C96.0146 154.288 92.2577 153.774 88.5894 152.943C84.9164 152.109 81.3452 150.845 77.9256 149.263C76.2248 148.45 74.5748 147.535 72.9683 146.551C71.3764 145.543 69.8257 144.468 68.3613 143.282C65.4312 140.915 62.7971 138.189 60.5293 135.195C61.7465 136.625 62.9719 138.047 64.3314 139.34C65.6508 140.671 67.0825 141.884 68.5473 143.047C70.0313 144.188 71.5636 145.264 73.1544 146.249C74.7557 147.216 76.3996 148.112 78.0918 148.91C81.4735 150.511 85.0205 151.76 88.658 152.652C90.4751 153.104 92.3159 153.466 94.1715 153.73C96.0259 154.004 97.896 154.19 99.7734 154.226Z" fill="#B98BFF"/>
<path d="M117.344 84.0261C117.489 84.1673 117.539 84.1466 117.632 84.2866C117.934 84.7344 118.921 85.0885 119.483 85.3002C120.453 86.076 122.001 87.6313 122.346 86.1095C122.651 84.762 122.903 84.0885 122.662 83.2976C122.648 83.218 122.073 82.8538 122.025 82.7645C121.559 81.9037 121.105 81.0114 120.563 80.2497C119.764 79.1289 118.716 79.7591 118.885 80.0926C118.938 80.1963 120.806 81.0048 120.45 80.7809C120.023 80.1363 120.052 80.2466 119.581 79.8972C118.625 79.1874 117.578 79.953 118.389 80.4705C118.514 80.55 119.009 80.5399 119.236 80.6054C119.279 80.6179 119.31 80.6347 119.325 80.6577C119.343 80.6846 118.934 80.4007 118.71 80.2611C117.704 79.6324 117.026 80.6054 117.312 80.988C117.417 81.1288 118.17 80.9053 118.292 81.0262C118.4 81.1327 117.495 80.4705 117.207 80.6803C116.473 81.215 116.702 82.5999 116.911 82.9431L117.657 82.2423C117.622 82.1877 117.949 82.713 118.07 82.9805C118.198 83.3522 118.182 83.3093 118.019 83.1744" fill="#EDBDA3"/>
<path d="M117.344 80.6384C117.508 80.5967 117.682 80.6115 117.849 80.6563C118.017 80.7012 118.173 80.7921 118.303 80.9122C118.434 81.0362 118.52 81.1895 118.594 81.3307C118.671 81.4757 118.745 81.622 118.802 81.7807C118.678 81.6668 118.572 81.5409 118.469 81.4133C118.361 81.2842 118.28 81.152 118.169 81.0538C117.952 80.8455 117.667 80.7156 117.344 80.6384Z" fill="#CC8972"/>
<path d="M118.137 80.0571C118.302 80.0716 118.463 80.107 118.624 80.146C118.789 80.1932 118.934 80.2116 119.107 80.3095C119.256 80.4253 119.351 80.5587 119.439 80.7006C119.526 80.8422 119.602 80.9884 119.654 81.148C119.534 81.0317 119.428 80.9093 119.32 80.7907C119.21 80.6764 119.105 80.5485 118.994 80.4678C118.955 80.4311 118.861 80.4105 118.791 80.3797C118.717 80.3485 118.642 80.3215 118.57 80.2853C118.425 80.2186 118.279 80.1484 118.137 80.0571Z" fill="#CC8972"/>
<path d="M119.065 79.6465C119.209 79.6753 119.34 79.7257 119.471 79.7748C119.6 79.8259 119.726 79.8863 119.847 79.9425L119.888 79.96L119.908 79.9675C119.925 79.9741 119.946 79.9838 119.959 79.9928C120.001 80.0252 120.025 80.0579 120.047 80.0887C120.093 80.1504 120.127 80.2135 120.157 80.2787C120.22 80.4066 120.272 80.5388 120.304 80.6796C120.208 80.5731 120.123 80.462 120.038 80.3536L119.909 80.2007C119.889 80.1765 119.865 80.1582 119.852 80.1476C119.85 80.1469 119.854 80.1508 119.856 80.1492C119.856 80.1492 119.836 80.143 119.827 80.1398L119.77 80.1188C119.636 80.0614 119.515 79.992 119.397 79.914C119.281 79.8337 119.167 79.7514 119.065 79.6465Z" fill="#CC8972"/>
<path opacity="0.11" d="M162.946 171.96C162.946 172.504 156.181 172.945 147.836 172.945C139.492 172.945 132.727 172.504 132.727 171.96C132.727 171.416 139.492 170.975 147.836 170.975C156.181 170.975 162.946 171.416 162.946 171.96Z" fill="#1D1B23"/>
<path d="M156.284 128.001C156.207 128.696 155.982 129.698 155.82 130.496C155.61 131.531 155.083 131.501 155.121 131.078C155.135 130.922 155.443 128.491 155.479 128.342C155.511 128.211 155.355 128.228 155.298 128.75C155.297 128.752 155.152 129.371 155.047 129.923C154.791 131.267 154.309 130.97 154.307 130.612C154.306 130.48 154.483 128.334 154.486 128.205C154.487 128.147 154.431 127.223 154.398 126.964C154.301 126.527 154.223 126.469 154.162 126.697C154.033 127.767 153.802 128.446 153.492 128.247C153.238 128.084 153.425 126.957 153.457 126.177C153.476 125.697 153.846 124.659 154.174 124.237C154.548 123.196 155.209 121.603 156.18 122.596C157.04 123.475 157.618 124.716 157.804 125.428C157.831 125.495 157.859 125.698 157.864 125.788C157.912 126.658 157.873 127.181 157.817 128.012C157.734 129.234 157.312 129.543 157.285 129.212C157.276 129.108 157.395 127.185 157.229 127.521C157.206 128.209 156.96 129.034 156.867 129.831C156.745 130.885 156.241 130.8 156.243 130.375C156.244 130.218 156.43 128.294 156.434 128.139C156.435 128.111 156.443 127.916 156.357 127.905C156.318 127.9 156.29 127.953 156.284 128.001Z" fill="#EDBDA3"/>
<path d="M122.154 83.293L132.232 91.7135L131.001 91.0454L140.531 93.3257L139.476 100.894L129.746 96.2913L128.96 96.1033L128.516 95.6232L119.595 85.9851L122.154 83.293Z" fill="#F4901F"/>
<path d="M150.958 119.068C150.958 119.068 154.323 132.985 155.117 144.805C155.117 144.805 152.063 147.366 149.198 147.774C149.198 147.774 144.24 136.754 140.432 126.191L150.958 119.068Z" fill="#3A3741"/>
<path d="M147.836 122.065C147.836 122.065 144.701 135.865 139.627 147.603C139.627 147.603 136.145 148.165 133.396 147.25C133.396 147.25 134.434 130.247 136.211 118.343L147.836 122.065Z" fill="#3A3741"/>
<path d="M141.556 92.2874C142.335 91.7769 142.027 89.9942 141.959 89.0372L146.579 85.4917C146.597 85.6122 146.6 89.316 146.619 89.4397C146.883 91.1471 149.851 93.0191 150.151 93.1872C151.959 94.1992 149.337 103.392 140.173 98.3469C140.134 98.3266 140.095 98.3044 140.057 98.2802C138.221 97.242 139.985 93.317 141.556 92.2874Z" fill="#EDBDA3"/>
<path d="M135.362 101.41C135.403 100.624 135.705 95.8279 138.548 93.8459C139.601 93.1123 141.557 92.2879 141.557 92.2879C141.743 92.8436 141.906 93.8459 143.585 93.8728C147.135 93.9298 148.071 91.603 148.071 91.603C150.394 93.4298 151.113 93.1896 151.805 93.7921C154 95.7058 155.531 96.6063 152.7 103.877L150.911 112.375L151.805 119.977C143.827 123.765 138.736 123.608 135.943 120.062C135.943 120.062 134.914 109.907 135.362 101.41Z" fill="#F4901F"/>
<path d="M145.642 94.2515L142.967 97.1784L141.291 94.2967L145.642 94.2515Z" fill="#F0EEFF"/>
<path d="M144.284 94.4188C144.284 94.4188 143.324 95.962 141.911 94.2281L143.224 93.8486L144.284 94.4188Z" fill="#3A3741"/>
<path d="M157.446 124.418C157.458 124.36 157.473 124.286 157.489 124.205C157.47 124.296 157.457 124.365 157.446 124.418Z" fill="#F4901F"/>
<path d="M157.422 124.543C157.42 124.551 157.42 124.552 157.422 124.543V124.543Z" fill="#F4901F"/>
<path d="M157.421 124.545C157.423 124.536 157.426 124.518 157.432 124.49C157.426 124.519 157.423 124.537 157.421 124.545Z" fill="#F4901F"/>
<path d="M157.489 124.206C157.497 124.166 157.506 124.122 157.516 124.074C157.507 124.119 157.498 124.163 157.489 124.206Z" fill="#F4901F"/>
<path d="M157.433 124.492C157.437 124.472 157.441 124.448 157.447 124.418C157.441 124.446 157.437 124.472 157.433 124.492Z" fill="#F4901F"/>
<path d="M157.516 124.076C157.521 124.047 157.527 124.019 157.533 123.99C157.527 124.019 157.521 124.05 157.516 124.076Z" fill="#F4901F"/>
<path d="M159.459 109.606C158.463 107.098 156.926 101.473 154.96 97.1713C153.145 93.1987 147.907 90.5846 149.79 99.2313C150.378 101.931 152.502 107.541 154.35 110.962L154.026 123.626C154.904 123.698 157.619 123.555 157.619 123.555C158.066 121.319 159.459 109.606 159.459 109.606Z" fill="#F4901F"/>
<path d="M157.609 123.608C157.605 123.632 157.599 123.661 157.592 123.695C157.597 123.667 157.603 123.638 157.609 123.608Z" fill="#F4901F"/>
<path d="M157.532 123.99C157.547 123.918 157.562 123.841 157.58 123.752C157.566 123.822 157.549 123.905 157.532 123.99Z" fill="#F4901F"/>
<path d="M157.619 123.555C157.615 123.575 157.612 123.591 157.608 123.61C157.615 123.575 157.619 123.555 157.619 123.555Z" fill="#F4901F"/>
<path d="M153.86 123.639C153.86 123.639 156.639 123.434 157.759 123.191C157.759 123.191 158.003 124.323 157.565 124.729C157.127 125.136 154.418 125.304 154.085 124.946C153.783 124.622 153.86 123.639 153.86 123.639Z" fill="#E6EBFF"/>
<path d="M154.31 124.404C154.399 124.442 154.501 124.4 154.538 124.312C154.576 124.223 154.534 124.122 154.446 124.084C154.357 124.047 154.255 124.088 154.218 124.177C154.18 124.265 154.222 124.367 154.31 124.404Z" fill="#F4901F"/>
<path d="M123.305 83.6778C123.305 83.6778 121.053 86.0974 120.275 87.212C120.275 87.212 119.15 86.4238 119.203 85.7171C119.256 85.0101 121.477 82.6806 122.055 82.7227C122.579 82.761 123.305 83.6778 123.305 83.6778Z" fill="#E6EBFF"/>
<path d="M120.068 85.7215C119.961 85.7601 119.906 85.8783 119.945 85.9855C119.984 86.0924 120.102 86.1477 120.209 86.1091C120.316 86.0701 120.371 85.952 120.333 85.8451C120.294 85.7379 120.175 85.6825 120.068 85.7215Z" fill="#F4901F"/>
<path d="M144.35 136.098C144.146 135.798 143.962 135.488 143.773 135.181C143.588 134.871 143.412 134.557 143.236 134.243C142.894 133.61 142.558 132.974 142.246 132.325L142.327 132.408C141.366 131.886 140.42 131.336 139.515 130.709C140.543 131.102 141.531 131.573 142.504 132.072L142.556 132.099L142.586 132.155C142.919 132.793 143.227 133.443 143.529 134.096C143.676 134.425 143.822 134.754 143.959 135.088C144.093 135.423 144.231 135.756 144.35 136.098Z" fill="#0D1017"/>
<path d="M159.871 162.293L149.123 147.628L153.329 142.2C153.329 142.2 157.084 145.302 158.435 148.407C161.142 154.629 162.751 158.004 163.697 159.834C162.597 160.801 161.221 161.818 159.871 162.293Z" fill="#3A3741"/>
<path d="M161.73 164.83L159.871 162.293C161.222 161.818 162.598 160.801 163.697 159.834C164.769 161.91 164.988 161.998 164.988 161.998C164.988 161.998 164.289 163.972 161.73 164.83Z" fill="#EDBDA3"/>
<path d="M131.557 166.027L133.555 146.346L139.793 145.561C139.793 145.561 140.115 153.665 139.054 156.88C137.512 161.551 136.626 164.579 136.119 166.541C134.73 166.519 132.982 166.403 131.557 166.027Z" fill="#3A3741"/>
<path d="M135.515 169.317C135.515 169.317 133.601 170.816 131.194 169.595L131.557 166.027C132.982 166.402 134.73 166.519 136.119 166.541C135.495 169.2 135.515 169.317 135.515 169.317Z" fill="#EDBDA3"/>
<path d="M141.836 79.1271C141.836 79.1271 140.068 80.1855 140.119 82.1398C140.132 82.6351 139.522 85.1385 139.522 85.1385C139.216 88.239 141.119 90.3029 141.854 90.3298C143.625 90.3942 145.069 89.5116 145.946 88.6758C147.556 87.1404 148.522 81.9179 147.262 80.2015C145.569 77.8947 142.695 78.0936 141.836 79.1271Z" fill="#EDBDA3"/>
<path d="M139.507 86.2658C139.507 86.2658 139.984 86.5501 140.984 86.2338C141.62 86.0326 142.566 85.3645 142.769 85.7877C143.692 87.7084 143.657 90.0472 142.004 90.3327C140.351 90.6178 139.276 86.9623 139.507 86.2658Z" fill="#3A3741"/>
<path d="M146.438 85.1516C146.384 84.7553 146.162 82.5277 146.298 82.0749C146.228 82.0277 146.099 82.0027 145.941 81.993C145.161 81.9438 144.55 81.3015 144.52 80.5215C144.52 80.5215 143.014 80.5554 141.488 80.2551C139.518 79.8675 140.035 77.6293 140.074 77.6195C140.596 77.4869 144.815 76.8227 147.22 78.3902C149.58 79.9287 148.442 83.6938 148.231 84.3236C148.212 84.3798 148.161 84.4153 148.102 84.4172L146.584 85.2744C146.511 85.2768 146.448 85.2241 146.438 85.1516Z" fill="#3A3741"/>
<path d="M148.15 79.356C148.15 79.356 150.018 80.3988 148.545 84.011C148.545 84.011 147.331 82.8188 148.15 79.356Z" fill="#3A3741"/>
<path d="M140.411 82.4692C140.411 82.4692 139.67 83.961 138.608 84.934C138.252 85.2605 139.327 86.3291 139.798 86.3763C140.841 86.4808 140.411 82.4692 140.411 82.4692Z" fill="#EDBDA3"/>
<path d="M148.37 85.6834C147.887 86.5285 147.011 86.897 146.413 86.5067C145.815 86.1163 145.722 85.1147 146.205 84.2696C146.688 83.4245 147.565 83.0559 148.163 83.4463C148.761 83.8367 148.854 84.8382 148.37 85.6834Z" fill="#EDBDA3"/>
<path d="M146.014 87.75C145.923 88.1314 145.735 88.4879 145.498 88.8053C145.261 89.1228 144.969 89.404 144.631 89.6177C144.292 89.8236 143.929 90.003 143.539 90.0826C143.35 90.1411 143.15 90.1501 142.957 90.1832C142.761 90.1953 142.564 90.1949 142.37 90.1926C142.755 90.1255 143.136 90.0643 143.498 89.9383C143.864 89.8283 144.204 89.6528 144.525 89.4539C144.848 89.255 145.127 88.9937 145.382 88.7114C145.633 88.4251 145.848 88.1029 146.014 87.75Z" fill="#CC8972"/>
<path d="M142.003 86.5503C141.888 86.844 141.648 87.0834 141.359 87.2277C141.07 87.3728 140.713 87.3923 140.427 87.2644C140.584 87.2445 140.731 87.239 140.871 87.1985C141.011 87.1618 141.147 87.1185 141.274 87.0522C141.534 86.9294 141.765 86.7527 142.003 86.5503Z" fill="#EDBDA3"/>
<path d="M141.028 83.7221C141.018 83.8887 141.1 84.0291 141.211 84.0357C141.323 84.0423 141.42 83.9125 141.43 83.7459C141.44 83.5794 141.358 83.439 141.247 83.4324C141.136 83.4257 141.038 83.5556 141.028 83.7221Z" fill="#3A3741"/>
<path d="M147.852 83.9353C147.628 83.9233 147.404 83.9665 147.237 84.0824C147.153 84.1405 147.087 84.2169 147.038 84.3043C146.984 84.3889 146.958 84.4895 146.929 84.5882L146.872 84.4782C146.976 84.5207 147.07 84.5691 147.161 84.6397C147.241 84.7075 147.359 84.8171 147.329 84.9872C147.315 85.066 147.266 85.1194 147.225 85.1615L147.11 85.2652C147.071 85.3 147.029 85.3315 146.986 85.3627C146.933 85.3947 146.92 85.4216 146.817 85.4521L146.877 85.3924C146.857 85.5917 146.879 85.8233 147.035 85.9891C146.935 85.9337 146.861 85.835 146.814 85.7282C146.765 85.619 146.748 85.5043 146.746 85.3807L146.806 85.321C146.799 85.3167 146.864 85.2746 146.89 85.245L146.995 85.142C147.063 85.0702 147.149 84.9946 147.145 84.9517C147.159 84.9115 147.11 84.8448 147.04 84.7918C146.972 84.738 146.886 84.6888 146.803 84.6537L146.797 84.651C146.755 84.6331 146.733 84.5866 146.746 84.5434C146.778 84.4279 146.822 84.3133 146.895 84.2119C146.96 84.1066 147.062 84.0258 147.169 83.9693C147.387 83.8542 147.641 83.8609 147.852 83.9353Z" fill="#CC8972"/>
<path d="M142.148 82.9717C142.239 82.8562 142.191 82.4865 141.702 82.2599C141.43 82.1336 141.182 82.2077 141.148 82.2291C141.074 82.2744 141.037 82.3824 141.07 82.4678C141.128 82.6199 141.356 82.5645 141.645 82.7622C141.852 82.9042 141.77 82.9389 141.976 83.004C141.996 83.0107 142.094 83.0403 142.148 82.9717Z" fill="#3A3741"/>
<path d="M146.941 90.2803C146.941 90.2803 145.3 93.0734 143.224 93.8484C143.224 93.8484 144.556 94.5211 145.522 95.1752C145.522 95.1752 148.362 92.4775 148.545 91.9643C148.545 91.9643 148.34 90.6906 146.941 90.2803Z" fill="#F0EEFF"/>
<path d="M141.971 91.6514L141.681 92.6708L143.224 93.8486C143.224 93.8486 141.982 94.3985 141.414 94.746C141.414 94.746 140.752 94.0085 140.74 92.773C140.74 92.773 140.997 91.9185 141.971 91.6514Z" fill="#F0EEFF"/>
<path d="M147.161 79.0292C147.161 79.0292 146.178 77.4758 141.256 76.5972C141.256 76.5972 140.439 78.927 147.161 79.0292Z" fill="#3A3741"/>
<path d="M147.817 78.9016C147.817 78.9016 146.889 77.6349 143.937 76.7925C143.937 76.7925 143.717 78.4223 147.817 78.9016Z" fill="#3A3741"/>
<path d="M147.394 79.233C147.394 79.233 147.389 78.5505 148.347 77.813C148.347 77.813 148.858 78.6527 147.394 79.233Z" fill="#3A3741"/>
<path d="M147.377 79.1347C147.377 79.1347 147.864 78.6569 149.06 78.8328C149.06 78.8328 148.812 79.7833 147.377 79.1347Z" fill="#3A3741"/>
<path d="M140.469 83.7236C140.469 84.3464 140.849 84.8515 141.319 84.8515C141.789 84.8515 142.169 84.3464 142.169 83.7236C142.169 83.1008 141.789 82.5957 141.319 82.5957C140.849 82.5957 140.469 83.1008 140.469 83.7236Z" stroke="#E6EBFF" stroke-width="0.366" stroke-miterlimit="10"/>
<path d="M140.494 83.4325C140.494 83.4325 140.368 83.0897 139.946 83.1579" stroke="#E6EBFF" stroke-width="0.366" stroke-miterlimit="10"/>
<path d="M142.842 86.0005C142.842 86.0005 143.669 86.9603 143.613 87.8249C143.613 87.8249 142.73 86.9045 142.842 86.0005Z" fill="#3A3741"/>
<path d="M139.946 86.4414C139.946 86.4414 141.053 85.2297 141.889 85.7164C141.889 85.7164 140.81 87.0556 139.946 86.4414Z" fill="#3A3741"/>
<path d="M143.049 86.6025C143.049 86.6025 143.808 87.7644 143.425 88.5756C143.425 88.5756 142.576 87.4352 143.049 86.6025Z" fill="#3A3741"/>
<path d="M143.107 94.7461L144.284 95.7371L142.967 97.1781L141.981 95.4848L143.107 94.7461Z" fill="#3A3741"/>
<path d="M130.282 169.675C130.284 169.674 130.284 169.674 130.286 169.673C131.046 169.32 130.765 168.16 131.692 168.814C132.287 169.234 132.601 169.989 133.22 170.072C134.59 170.039 135.514 169.317 135.514 169.317L135.666 169.307C135.666 169.307 136.331 170.479 136.14 172.776C136.129 172.904 136.023 173.007 135.895 173.014L133.493 173.152C131.216 172.378 131.743 173.815 125.31 173.028C125.196 173.014 125.099 172.928 125.082 172.814C124.98 172.157 125.06 170.013 130.282 169.675Z" fill="#3A3741"/>
<path d="M160.638 165.132C160.639 165.13 160.638 165.129 160.639 165.128C161.024 164.384 160.093 163.638 161.227 163.588C161.955 163.556 162.664 163.961 163.205 163.648C164.268 162.784 164.558 161.649 164.558 161.649L164.672 161.548C164.672 161.548 165.914 162.069 167.168 164.002C167.238 164.11 167.217 164.257 167.12 164.341L165.303 165.919C163.028 166.699 164.324 167.514 158.753 170.824C158.654 170.883 158.525 170.874 158.442 170.795C157.961 170.338 156.712 168.593 160.638 165.132Z" fill="#3A3741"/>
<path d="M142.129 83.7344L146.377 84.0109" stroke="#E6EBFF" stroke-width="0.366" stroke-miterlimit="10"/>
<path d="M152.082 106.05C151.741 105.353 151.484 104.63 151.248 103.901C151.021 103.168 150.815 102.43 150.693 101.664C151.035 102.36 151.292 103.083 151.527 103.812C151.754 104.545 151.96 105.284 152.082 106.05Z" fill="#CC8972"/>
<path d="M136.427 96.604C136.317 97.0373 136.2 97.4429 136.08 97.8547C135.956 98.265 135.84 98.6757 135.66 99.0887C135.61 98.6402 135.679 98.1979 135.799 97.7717C135.931 97.3516 136.112 96.9316 136.427 96.604Z" fill="#CC8972"/>
<path d="M146.81 99.8501C146.513 100.907 146.154 101.944 145.771 102.972C145.386 104 144.953 105.009 144.495 106.009C144.013 106.996 143.509 107.977 142.893 108.894C142.582 109.35 142.246 109.792 141.857 110.187C141.468 110.567 140.992 110.947 140.428 110.963C140.979 110.879 141.402 110.493 141.752 110.089C142.111 109.684 142.421 109.236 142.703 108.772C143.271 107.844 143.773 106.874 144.231 105.884C144.707 104.902 145.135 103.896 145.562 102.889C145.988 101.882 146.399 100.867 146.81 99.8501Z" fill="#CC8972"/>
<path d="M137.539 104.906C137.712 106.076 137.888 107.244 138.084 108.408C138.28 109.571 138.479 110.734 138.736 111.884C138.971 113.039 139.256 114.183 139.617 115.3C139.798 115.859 140.002 116.41 140.262 116.936C140.516 117.461 140.828 117.971 141.292 118.343C140.786 118.024 140.434 117.513 140.135 117.002C139.845 116.481 139.613 115.93 139.404 115.374C138.994 114.256 138.709 113.101 138.45 111.944C138.216 110.782 138.012 109.615 137.862 108.44C137.712 107.267 137.592 106.089 137.539 104.906Z" fill="#CC8972"/>
<path d="M149.806 112.18C149.551 112.245 149.302 112.321 149.05 112.375C148.798 112.434 148.545 112.482 148.294 112.533L147.544 112.677C147.424 112.704 147.292 112.733 147.206 112.778C147.192 112.791 147.184 112.782 147.181 112.784C147.181 112.795 147.201 112.817 147.226 112.834C147.275 112.867 147.335 112.898 147.393 112.929C147.327 112.928 147.26 112.924 147.192 112.904C147.158 112.893 147.12 112.882 147.085 112.838C147.039 112.779 147.081 112.704 147.108 112.673C147.228 112.559 147.351 112.511 147.476 112.459C147.726 112.36 147.982 112.298 148.239 112.246C148.754 112.157 149.278 112.095 149.806 112.18Z" fill="#CC8972"/>
<path d="M149.494 112.554C149.278 112.835 149.029 113.053 148.792 113.274C148.673 113.382 148.555 113.492 148.464 113.603C148.421 113.659 148.384 113.713 148.387 113.758C148.377 113.815 148.45 113.872 148.521 113.923C148.435 113.93 148.327 113.92 148.254 113.813C148.19 113.697 148.229 113.576 148.265 113.49C148.344 113.31 148.469 113.181 148.594 113.059C148.856 112.828 149.15 112.645 149.494 112.554Z" fill="#CC8972"/>
<path opacity="0.23" d="M51.3925 78.4042C50.7806 78.4424 50.2319 78.4643 49.7354 78.4803C46.7117 85.0373 44.9193 92.2781 44.6514 99.9073C45.0207 100.367 45.2605 100.644 45.2605 100.644C45.2605 100.644 49.2857 95.9043 50.5482 88.9705C51.5789 83.3089 55.3354 84.6688 58.5069 84.7569C63.805 84.9043 64.9368 83.016 61.1624 79.3379C57.3123 75.5853 56.2706 78.1008 51.3925 78.4042Z" fill="#6123C1"/>
<path d="M45.261 98.4294C45.261 98.4294 39.4133 91.6964 40.6438 88.8237C41.8742 85.951 40.7541 82.478 43.208 79.1267C45.6615 75.7755 46.5148 76.4927 51.3929 76.1897C56.2711 75.8866 57.3127 73.3711 61.1628 77.1229C64.9372 80.8014 63.8055 82.6894 58.5073 82.542C55.3358 82.4538 51.579 81.0939 50.5486 86.7555C49.2862 93.689 45.261 98.4294 45.261 98.4294Z" fill="#7FC991"/>
<path d="M37.7004 94.4142C39.4215 93.438 37.9609 88.657 35.1658 86.1196C33.2349 84.367 31.258 85.8462 28.4515 83.5683C26.4692 81.9591 26.5776 80.5087 25.0078 80.1663C23.1534 79.7619 22.4362 81.6631 19.4843 82.2582C16.6431 82.8308 15.9415 81.3441 14.1838 82.0664C10.96 83.3908 8.67425 90.2989 10.6461 92.4111C11.8527 93.7036 14.8132 89.8047 18.0226 91.1374C19.6219 91.8015 19.5806 93.0043 21.178 93.4091C23.4159 93.9762 24.5543 91.8846 26.9056 91.488C31.4506 90.7212 35.7761 95.5058 37.7004 94.4142Z" fill="#7FC991"/>
<path d="M49.2606 126.586C48.8164 124.417 48.3433 122.255 47.8223 120.104C47.3165 117.95 46.7642 115.807 46.1706 113.676C44.9792 109.42 43.682 105.18 41.9559 101.116C41.096 99.0878 40.1502 97.0839 38.8847 95.2868L37.9155 93.9499C37.5809 93.5135 37.2108 93.1052 36.8602 92.6812C36.6788 92.4745 36.5135 92.253 36.3188 92.0584L35.7413 91.4691C35.3583 91.074 34.9823 90.6712 34.5596 90.3182C32.9383 88.8311 31.1151 87.5574 29.1401 86.5785C27.1722 85.5969 25.0537 84.8528 22.8486 84.6211C25.065 84.7646 27.2127 85.4752 29.2236 86.4065C31.2329 87.3589 33.0951 88.6178 34.7596 90.0944C35.1933 90.4454 35.5802 90.8455 35.9741 91.2394L36.563 91.8318C36.7607 92.028 36.9292 92.2507 37.1141 92.4589C37.4709 92.8856 37.8476 93.2974 38.1885 93.737L39.1756 95.0836C40.472 96.9045 41.4395 98.9263 42.3143 100.964C43.1708 103.013 43.9262 105.102 44.5989 107.214C45.274 109.326 45.9105 111.45 46.4588 113.598C47.5848 117.885 48.5278 122.219 49.2606 126.586Z" fill="#40635B"/>
<path d="M50.1975 126.46C49.4635 122.731 48.7651 118.996 48.0689 115.26L46.0308 104.043C45.3931 100.297 44.7309 96.5529 44.2235 92.782C43.9817 90.896 43.7543 89.0029 43.7107 87.0947C43.7001 86.1423 43.7348 85.1802 43.9454 84.2442C44.0613 83.7797 44.227 83.3241 44.477 82.915C44.7274 82.5059 45.0647 82.1573 45.4442 81.8726C45.0764 82.1729 44.7566 82.5332 44.5277 82.9455C44.2949 83.3557 44.1459 83.807 44.0464 84.2668C43.8678 85.1938 43.8624 86.1458 43.9018 87.0896C43.9837 88.9807 44.243 90.864 44.5203 92.7403C45.0881 96.4937 45.7465 100.236 46.4141 103.976L48.3626 115.208C48.9979 118.955 49.6223 122.704 50.1975 126.46Z" fill="#40635B"/>
<path d="M45.1021 112.744C45.1021 112.744 45.6754 105.318 43.3798 104.079C41.0843 102.839 40.0141 99.9874 36.6707 99.0697C33.3272 98.1521 33.1415 99.0639 29.795 101.397C26.4484 103.731 24.4617 102.627 23.8919 107.078C23.3334 111.442 25.0533 112.089 28.4405 109.243C30.4681 107.539 32.2184 104.701 35.8306 107.867C40.2548 111.746 45.1021 112.744 45.1021 112.744Z" fill="#7FC991"/>
<path d="M48.2854 126.705L47.9999 125.118L47.6937 123.536L47.3731 121.958L47.0194 120.389C46.5276 118.301 45.9773 116.227 45.2699 114.207C44.5905 112.178 43.7602 110.199 42.7247 108.331C42.4833 107.852 42.1865 107.409 41.9022 106.957C41.6323 106.493 41.2888 106.083 40.9756 105.65L40.7373 105.327L40.4729 105.026L39.9429 104.423C39.7756 104.211 39.5591 104.05 39.3688 103.862L38.7822 103.308C39.1925 103.652 39.6313 103.972 40.0162 104.349L40.5829 104.927L40.8668 105.217L41.125 105.529C41.4576 105.954 41.8188 106.361 42.107 106.818C42.4096 107.266 42.7255 107.706 42.9853 108.18C44.0882 110.042 44.9255 112.046 45.6388 114.081C46.3209 116.128 46.8802 118.214 47.3115 120.324C47.7429 122.435 48.0689 124.565 48.2854 126.705Z" fill="#40635B"/>
<path opacity="0.11" d="M50.4648 174.256C69.1243 174.256 84.2509 171.95 84.2509 169.105C84.2509 166.261 69.1243 163.955 50.4648 163.955C31.8053 163.955 16.6787 166.261 16.6787 169.105C16.6787 171.95 31.8053 174.256 50.4648 174.256Z" fill="#1D1B23"/>
<path d="M21.2636 115.94L16.6787 167.977H27.7871L21.2636 115.94Z" fill="#292069"/>
<path d="M21.9561 125.822C21.9561 125.822 23.5983 169.973 26.3299 171.552C29.0615 173.13 76.9121 174.922 87.6562 165.372C87.6562 165.372 83.5804 159.173 82.5948 153.778C81.6093 148.382 79.3294 121.83 79.3294 121.83L21.9561 125.822Z" fill="#F0EEFF"/>
<path d="M41.3706 139.068L32.5796 140.26L31.9268 130.949L41.0707 130.309L41.3706 139.068Z" stroke="#CCCCCC" stroke-width="0.5" stroke-miterlimit="10"/>
<path d="M53.1293 138.819L43.9854 139.46L43.2881 129.513L52.4765 129.509L53.1293 138.819Z" stroke="#CCCCCC" stroke-width="0.5" stroke-miterlimit="10"/>
<path d="M64.1775 137.401L55.3911 138.661L54.7383 129.351L63.8822 128.709L64.1775 137.401Z" stroke="#CCCCCC" stroke-width="0.5" stroke-miterlimit="10"/>
<path d="M42.6268 152.495L33.4497 152.664L32.7969 143.354L41.9408 142.713L42.6268 152.495Z" stroke="#CCCCCC" stroke-width="0.5" stroke-miterlimit="10"/>
<path d="M53.9989 151.223L44.9022 152.54L44.2021 142.554L53.3129 141.439L53.9989 151.223Z" stroke="#CCCCCC" stroke-width="0.5" stroke-miterlimit="10"/>
<path d="M65.4514 151.1L56.2603 151.065L55.6074 141.754L64.7514 141.113L65.4514 151.1Z" stroke="#CCCCCC" stroke-width="0.5" stroke-miterlimit="10"/>
<path d="M43.4632 164.427L34.3192 165.068L33.6445 155.446L42.8103 155.117L43.4632 164.427Z" stroke="#CCCCCC" stroke-width="0.5" stroke-miterlimit="10"/>
<path d="M75.0221 127.937L65.8779 128.578L66.5303 137.889L75.6745 137.248L75.0221 127.937Z" stroke="#CCCCCC" stroke-width="0.5" stroke-miterlimit="10"/>
<path d="M75.8912 140.342L66.7471 140.983L67.3995 150.294L76.5436 149.653L75.8912 140.342Z" stroke="#CCCCCC" stroke-width="0.5" stroke-miterlimit="10"/>
<path d="M77.4157 162.046L68.2718 162.688L67.9531 152.767L76.7628 152.736L77.4157 162.046Z" stroke="#CCCCCC" stroke-width="0.5" stroke-miterlimit="10"/>
<path d="M54.8681 163.627L45.2152 163.372L45.0713 154.959L54.2152 154.317L54.8681 163.627Z" stroke="#CCCCCC" stroke-width="0.5" stroke-miterlimit="10"/>
<path d="M66.2743 162.828L57.1304 163.469L56.4775 154.159L65.5996 153.205L66.2743 162.828Z" stroke="#CCCCCC" stroke-width="0.5" stroke-miterlimit="10"/>
<path d="M78.637 111.949L21.2637 115.941L21.9563 125.822L79.33 121.83L78.637 111.949ZM31.9863 121.798C31.0827 121.861 30.2988 121.18 30.2356 120.276C30.1724 119.373 30.8534 118.589 31.757 118.526C32.6606 118.462 33.4445 119.143 33.5077 120.047C33.5709 120.951 32.89 121.735 31.9863 121.798ZM41.7558 121.113C40.8522 121.176 40.0683 120.495 40.0051 119.592C39.9419 118.688 40.6229 117.904 41.5265 117.841C42.4301 117.778 43.214 118.459 43.2772 119.362C43.3404 120.266 42.6595 121.049 41.7558 121.113ZM51.5253 120.428C50.6217 120.491 49.8378 119.81 49.7746 118.906C49.7114 118.003 50.3924 117.219 51.296 117.156C52.1996 117.092 52.9835 117.773 53.0467 118.677C53.1099 119.581 52.429 120.365 51.5253 120.428ZM61.2948 119.743C60.3912 119.806 59.6073 119.125 59.5441 118.221C59.4809 117.318 60.1619 116.534 61.0655 116.471C61.9691 116.408 62.753 117.089 62.8162 117.992C62.8794 118.896 62.1985 119.68 61.2948 119.743ZM71.0643 119.058C70.1607 119.121 69.3768 118.44 69.3136 117.537C69.2501 116.633 69.9314 115.849 70.835 115.786C71.7386 115.722 72.5225 116.404 72.5857 117.307C72.6489 118.211 71.968 118.995 71.0643 119.058Z" fill="#F4901F"/>
<path d="M50.0605 132.378C49.878 132.836 49.6343 133.24 49.3761 133.632C49.1144 134.02 48.8293 134.389 48.5247 134.74C48.2201 135.092 47.8949 135.425 47.547 135.739C47.1952 136.049 46.829 136.347 46.4004 136.59C46.5821 136.132 46.8255 135.728 47.0841 135.336C47.3461 134.948 47.6308 134.579 47.9362 134.229C48.2416 133.878 48.5668 133.544 48.9147 133.231C49.2665 132.921 49.6327 132.623 50.0605 132.378Z" fill="#4D4D4D"/>
<path d="M50.336 136.315C49.8786 136.132 49.4745 135.889 49.0826 135.63C48.6941 135.369 48.3256 135.084 47.9742 134.779C47.6228 134.475 47.2893 134.149 46.9758 133.801C46.6653 133.45 46.3678 133.083 46.124 132.655C46.5823 132.837 46.9867 133.08 47.3783 133.338C47.7667 133.601 48.1353 133.885 48.4859 134.191C48.8365 134.496 49.1703 134.821 49.4835 135.169C49.7935 135.521 50.0915 135.887 50.336 136.315Z" fill="#4D4D4D"/>
<path d="M63.2285 156.231C63.046 156.688 62.8022 157.092 62.5441 157.484C62.2824 157.873 61.9973 158.241 61.6927 158.593C61.3881 158.944 61.0628 159.278 60.715 159.591C60.3632 159.902 59.997 160.199 59.5684 160.443C59.7501 159.985 59.9935 159.58 60.252 159.189C60.5141 158.8 60.7988 158.432 61.1042 158.081C61.4096 157.731 61.7348 157.397 62.0827 157.083C62.4349 156.773 62.8007 156.475 63.2285 156.231Z" fill="#4D4D4D"/>
<path d="M63.504 160.167C63.0465 159.984 62.6425 159.741 62.2505 159.483C61.8621 159.221 61.4935 158.936 61.1421 158.631C60.7908 158.327 60.4573 158.001 60.1437 157.653C59.8333 157.302 59.5357 156.935 59.292 156.507C59.7502 156.689 60.1547 156.932 60.5462 157.191C60.9347 157.453 61.3032 157.737 61.6538 158.043C62.0044 158.348 62.3383 158.673 62.6515 159.021C62.9619 159.373 63.2595 159.739 63.504 160.167Z" fill="#4D4D4D"/>
<path d="M39.5244 145.582C39.3419 146.04 39.0981 146.444 38.84 146.835C38.5783 147.224 38.2932 147.592 37.9886 147.944C37.684 148.295 37.3587 148.629 37.0109 148.942C36.6591 149.253 36.2929 149.55 35.8643 149.794C36.046 149.336 36.2894 148.931 36.5479 148.54C36.8096 148.151 37.0947 147.783 37.4001 147.432C37.7054 147.082 38.0307 146.748 38.3786 146.435C38.7308 146.125 39.097 145.827 39.5244 145.582Z" fill="#B98BFF"/>
<path d="M39.8009 149.518C39.3434 149.336 38.9394 149.092 38.5474 148.834C38.159 148.572 37.7904 148.287 37.439 147.982C37.0876 147.678 36.7542 147.352 36.4406 147.005C36.1302 146.653 35.8326 146.287 35.5889 145.858C36.0471 146.04 36.4515 146.283 36.8431 146.542C37.2315 146.804 37.6001 147.088 37.9507 147.394C38.3013 147.699 38.6352 148.024 38.9483 148.372C39.2584 148.724 39.5563 149.09 39.8009 149.518Z" fill="#B98BFF"/>
<path d="M78.5947 167.977C79.136 167.561 79.6415 167.112 80.1309 166.653C80.6153 166.188 81.0747 165.702 81.4909 165.182C81.9121 164.665 82.2674 164.103 82.5829 163.518C82.8906 162.926 83.1094 162.295 83.2864 161.633C83.2603 162.313 83.1332 163.006 82.859 163.645C82.5875 164.283 82.2272 164.884 81.7951 165.425C80.9195 166.495 79.833 167.393 78.5947 167.977Z" fill="#CCCCCC"/>
<path d="M23.584 127.221L23.9034 132.493L24.2466 137.762C24.4923 141.274 24.7446 144.784 25.0773 148.287C25.3823 151.793 25.7625 155.291 26.2547 158.773C26.5055 160.513 26.7929 162.249 27.1739 163.963C27.2605 164.394 27.3666 164.82 27.4774 165.245C27.5768 165.674 27.7133 166.09 27.8404 166.511C27.8986 166.723 27.9824 166.926 28.0592 167.131C28.1423 167.333 28.2024 167.547 28.3045 167.741L28.5916 168.334L28.9609 168.88C28.3724 168.212 28.0604 167.362 27.7426 166.545C27.601 166.127 27.4493 165.711 27.3354 165.285C27.2098 164.862 27.0889 164.437 26.9875 164.008C26.5671 162.294 26.2453 160.558 25.9579 158.819C25.4026 155.336 25.0246 151.831 24.6889 148.323C24.3882 144.813 24.13 141.299 23.9482 137.781C23.7685 134.263 23.6284 130.743 23.584 127.221Z" fill="#CCCCCC"/>
<path d="M21.9563 125.821L24.1813 125.665L23.5838 116.656L21.2637 115.94L21.9563 125.821Z" fill="#CC8972"/>
<path d="M26.2725 115.589C26.5798 114.925 26.9901 114.304 27.4795 113.742C27.9736 113.189 28.5614 112.677 29.2946 112.377C29.6588 112.228 30.0574 112.134 30.4654 112.127C30.8733 112.122 31.2812 112.205 31.6591 112.349C32.4146 112.655 33.0222 113.166 33.5249 113.765C34.037 114.362 34.3833 115.142 34.4434 115.952C34.5065 116.764 34.2772 117.562 33.9024 118.236C33.5237 118.913 33.0019 119.486 32.4048 119.944C31.8058 120.394 31.1248 120.753 30.3983 120.881C31.0644 120.576 31.6428 120.143 32.1388 119.64C32.6345 119.14 33.053 118.567 33.3354 117.946C33.622 117.329 33.7624 116.66 33.6938 116.018C33.6368 115.371 33.3432 114.771 32.9286 114.25C32.509 113.728 31.9704 113.277 31.3873 113.002C30.7957 112.742 30.1303 112.707 29.4931 112.915C28.857 113.125 28.2599 113.519 27.7287 113.99C27.1956 114.464 26.71 115.005 26.2725 115.589Z" fill="#4D4D4D"/>
<path d="M36.0947 114.705C36.402 114.04 36.8123 113.42 37.3018 112.858C37.7959 112.304 38.3836 111.792 39.1168 111.493C39.4811 111.343 39.8797 111.25 40.2876 111.242C40.6956 111.238 41.1035 111.32 41.4814 111.465C42.2368 111.772 42.8445 112.282 43.3472 112.881C43.8592 113.477 44.2056 114.257 44.2656 115.068C44.3288 115.879 44.0995 116.677 43.7247 117.351C43.346 118.029 42.8242 118.602 42.2271 119.06C41.628 119.51 40.9471 119.869 40.2205 119.997C40.887 119.692 41.465 119.258 41.9611 118.756C42.4568 118.255 42.8753 117.682 43.1576 117.062C43.4443 116.445 43.5847 115.776 43.516 115.133C43.4591 114.487 43.1654 113.887 42.7509 113.366C42.3312 112.844 41.7926 112.393 41.2096 112.118C40.6179 111.858 39.9526 111.823 39.3153 112.032C38.6793 112.241 38.0822 112.635 37.551 113.107C37.0182 113.58 36.5327 114.121 36.0947 114.705Z" fill="#4D4D4D"/>
<path d="M45.9883 114.255C46.2652 113.641 46.6388 113.068 47.0861 112.549C47.5381 112.037 48.0775 111.562 48.7546 111.284C49.0907 111.145 49.4597 111.058 49.838 111.049C50.2159 111.044 50.5946 111.12 50.9448 111.253C51.6452 111.536 52.2057 112.007 52.6709 112.56C53.1448 113.111 53.465 113.834 53.5203 114.585C53.5781 115.337 53.364 116.075 53.0165 116.696C52.6647 117.321 52.1819 117.846 51.6292 118.265C51.075 118.676 50.446 119.003 49.7764 119.113C50.3855 118.825 50.912 118.424 51.3633 117.961C51.8141 117.5 52.194 116.974 52.4494 116.406C52.7091 115.842 52.834 115.234 52.7708 114.651C52.7189 114.064 52.451 113.52 52.0746 113.045C51.6928 112.569 51.2014 112.158 50.673 111.906C50.1363 111.67 49.5349 111.635 48.9535 111.822C48.3735 112.011 47.8248 112.368 47.3357 112.797C46.8443 113.228 46.3954 113.721 45.9883 114.255Z" fill="#4D4D4D"/>
<path d="M55.6836 113.394C55.9589 112.783 56.3306 112.213 56.7752 111.696C57.2249 111.186 57.7615 110.714 58.4354 110.436C58.7701 110.298 59.1374 110.211 59.5138 110.202C59.8901 110.197 60.2669 110.273 60.6155 110.406C61.3129 110.687 61.8709 111.156 62.3339 111.707C62.8058 112.255 63.1244 112.975 63.1794 113.722C63.2371 114.471 63.0234 115.205 62.6775 115.824C62.3272 116.445 61.8464 116.969 61.2965 117.385C60.7446 117.794 60.1183 118.119 59.4518 118.228C60.0578 117.942 60.5812 117.542 61.0305 117.081C61.4786 116.622 61.8565 116.098 62.1108 115.534C62.369 114.973 62.493 114.368 62.4302 113.788C62.3783 113.205 62.1123 112.664 61.7379 112.191C61.3581 111.718 60.8694 111.309 60.3441 111.059C59.8106 110.823 59.2123 110.789 58.6339 110.975C58.0571 111.162 57.5111 111.517 57.0244 111.945C56.5361 112.373 56.0892 112.864 55.6836 113.394Z" fill="#4D4D4D"/>
<path d="M65.9512 112.607C66.2195 112.008 66.583 111.449 67.0186 110.94C67.4589 110.441 67.9846 109.976 68.6461 109.703C68.9745 109.567 69.3352 109.481 69.7049 109.473C70.0746 109.468 70.4448 109.542 70.7872 109.672C71.4724 109.948 72.02 110.409 72.4743 110.949C72.9376 111.486 73.2508 112.194 73.3046 112.928C73.3608 113.663 73.151 114.385 72.8109 114.991C72.4669 115.601 71.9946 116.113 71.4545 116.521C70.9128 116.921 70.2981 117.239 69.6445 117.344C70.2377 117.062 70.7497 116.67 71.1885 116.217C71.6268 115.767 71.9962 115.254 72.2438 114.702C72.4958 114.152 72.6167 113.56 72.555 112.994C72.5043 112.424 72.2438 111.896 71.878 111.433C71.5067 110.97 71.0286 110.57 70.5153 110.325C69.9943 110.095 69.4105 110.061 68.8446 110.242C68.2803 110.425 67.7452 110.771 67.2678 111.189C66.7885 111.608 66.3498 112.088 65.9512 112.607Z" fill="#4D4D4D"/>
<path d="M46.6733 146.473C46.6429 147.46 46.9069 148.453 47.4735 149.24C48.0227 150.026 48.8928 150.619 49.8366 150.653C50.7745 150.679 51.6969 150.245 52.3649 149.574C53.0275 148.907 53.5088 148.008 53.5131 147.075C53.5482 146.147 53.0623 145.243 52.3712 144.607C51.6844 143.968 50.7222 143.571 49.803 143.755C48.883 143.934 48.128 144.691 47.7816 145.583C47.4065 146.476 47.4205 147.516 47.7668 148.442C47.3378 147.549 47.2704 146.474 47.603 145.515C47.931 144.565 48.7024 143.708 49.7395 143.462C50.2504 143.338 50.7964 143.38 51.2862 143.553C51.7788 143.723 52.2257 144.001 52.6095 144.344C53.3672 145.026 53.9277 146.014 53.9023 147.083C53.8801 148.146 53.3376 149.113 52.6122 149.828C51.8821 150.537 50.8689 151.029 49.8178 150.951C48.7621 150.872 47.8565 150.19 47.3156 149.347C46.7782 148.489 46.5555 147.456 46.6733 146.473Z" fill="#F4901F"/>
<path d="M72.6763 129.409C71.6963 129.287 70.683 129.458 69.8465 129.95C69.0138 130.424 68.3422 131.235 68.2217 132.172C68.109 133.103 68.4557 134.062 69.0614 134.789C69.6643 135.511 70.5149 136.073 71.4439 136.164C72.3639 136.285 73.3093 135.885 74.0066 135.255C74.7067 134.63 75.1906 133.709 75.0931 132.777C74.9995 131.844 74.3159 131.022 73.4598 130.595C72.6057 130.139 71.5687 130.056 70.6148 130.316C71.5438 129.971 72.6194 130.003 73.5441 130.423C74.459 130.838 75.2421 131.685 75.3911 132.741C75.4672 133.261 75.3747 133.801 75.1571 134.273C74.9422 134.747 74.6248 135.167 74.2468 135.517C73.4977 136.209 72.4626 136.675 71.4002 136.551C70.3445 136.431 69.4311 135.801 68.7868 135.012C68.148 134.22 67.7522 133.165 67.9273 132.126C68.1036 131.082 68.8664 130.244 69.756 129.783C70.6596 129.327 71.7083 129.201 72.6763 129.409Z" fill="#F4901F"/>
<path d="M48.7793 147.18C49.2465 147.48 49.672 147.825 50.0885 148.179L49.8296 148.205C49.9852 147.957 50.1529 147.719 50.3221 147.481C50.4973 147.248 50.6692 147.012 50.8592 146.789C51.0456 146.564 51.2398 146.344 51.4492 146.137C51.6579 145.932 51.8775 145.723 52.1415 145.583C51.9496 145.806 51.7999 146.052 51.6325 146.289L51.1408 147.004C50.8089 147.478 50.4684 147.947 50.1115 148.403L49.9836 148.567L49.8526 148.429C49.4747 148.033 49.1061 147.629 48.7793 147.18Z" fill="#F4901F"/>
<path opacity="0.23" d="M124.214 57.8066C125.236 58.3542 126.236 58.9369 127.213 59.5519C128.62 59.032 130.935 57.9127 133.339 56.4377C128.826 53.1855 123.812 50.5877 118.432 48.7852C120.521 52.1789 122.724 55.6714 124.214 57.8066Z" fill="#6123C1"/>
<path d="M116.372 39.9829C116.372 39.9829 128.498 60.4582 129.714 60.7511C130.93 61.0436 145.415 54.0201 146.043 47.7673C146.043 47.7673 143.214 45.5244 141.502 43.1512C139.791 40.7781 132.12 28.6768 132.12 28.6768L116.372 39.9829Z" fill="#F0EEFF"/>
<path d="M144.077 50.4807C144.1 49.8271 144.112 49.2109 144.06 48.5927C144.04 48.2842 144.001 47.9777 143.951 47.67C143.907 47.3595 143.831 47.0561 143.777 46.7285C143.979 46.9875 144.142 47.2808 144.246 47.5943C144.361 47.9051 144.42 48.2339 144.449 48.5635C144.471 48.8938 144.46 49.2265 144.399 49.5509C144.341 49.8743 144.245 50.1948 144.077 50.4807Z" fill="#292069"/>
<path d="M120.348 41.5095L121.778 40.515L123.219 39.5392L126.099 37.5923C127.063 36.9492 128.012 36.2878 128.964 35.6279C129.91 34.9622 130.85 34.2871 131.74 33.5391C131.541 33.7501 131.341 33.963 131.133 34.1666L130.492 34.7613C130.048 35.1369 129.601 35.5105 129.143 35.8689C128.228 36.5893 127.279 37.2628 126.318 37.9153C125.352 38.5615 124.378 39.196 123.38 39.7912C122.385 40.3898 121.381 40.9752 120.348 41.5095Z" fill="#292069"/>
<path d="M121.984 43.6697L123.415 42.6752L124.856 41.6999L127.736 39.753C128.699 39.1099 129.649 38.4484 130.6 37.7885C131.547 37.1228 132.487 36.4477 133.376 35.6997C133.177 35.9107 132.978 36.1236 132.769 36.3272L132.129 36.922C131.685 37.2975 131.238 37.6712 130.779 38.0296C129.865 38.7499 128.916 39.4234 127.955 40.0759C126.988 40.7221 126.015 41.3567 125.017 41.9518C124.022 42.5501 123.018 43.1354 121.984 43.6697Z" fill="#292069"/>
<path d="M123.622 45.8298L125.053 44.8353L126.493 43.8599L129.373 41.9126C130.337 41.2695 131.287 40.6081 132.238 39.9482C133.185 39.2825 134.124 38.6074 135.014 37.8594C134.815 38.0704 134.615 38.2833 134.407 38.4869L133.766 39.0816C133.322 39.4572 132.875 39.8308 132.417 40.1892C131.502 40.9096 130.553 41.5831 129.592 42.2356C128.626 42.8818 127.652 43.5163 126.654 44.1115C125.659 44.7101 124.656 45.2955 123.622 45.8298Z" fill="#292069"/>
<path d="M125.259 47.9896L126.689 46.9951L128.13 46.0197L131.01 44.0728C131.974 43.4297 132.923 42.7683 133.875 42.1084C134.822 41.4426 135.761 40.7676 136.651 40.0195C136.452 40.2305 136.252 40.4435 136.043 40.647L135.403 41.2418C134.959 41.6174 134.512 41.991 134.053 42.3494C133.139 43.0697 132.19 43.7433 131.229 44.3957C130.262 45.042 129.289 45.6765 128.291 46.2716C127.296 46.8703 126.292 47.4557 125.259 47.9896Z" fill="#292069"/>
<path d="M126.896 50.1501L128.326 49.1556L129.767 48.1798L132.647 46.233C133.611 45.5898 134.56 44.9284 135.511 44.2685C136.458 43.6028 137.398 42.9277 138.287 42.1797C138.089 42.3907 137.889 42.6036 137.681 42.8072L137.04 43.4019C136.596 43.7775 136.149 44.1511 135.69 44.5095C134.776 45.2299 133.827 45.9034 132.866 46.5559C131.9 47.2021 130.926 47.8366 129.928 48.4318C128.932 49.0308 127.929 49.6162 126.896 50.1501Z" fill="#292069"/>
<path d="M128.533 52.3104L129.964 51.3159L131.404 50.3405L134.285 48.3936C135.248 47.7505 136.198 47.0891 137.149 46.4292C138.096 45.7634 139.036 45.0884 139.925 44.3403C139.726 44.5513 139.527 44.7643 139.318 44.9678L138.678 45.5626C138.234 45.9382 137.786 46.3118 137.328 46.6702C136.414 47.3905 135.465 48.0641 134.503 48.7165C133.537 49.3628 132.564 49.9973 131.566 50.5924C130.57 51.1907 129.567 51.7761 128.533 52.3104Z" fill="#292069"/>
<path d="M130.17 54.4704L131.6 53.4759L133.041 52.5002L135.921 50.5533C136.885 49.9102 137.835 49.2487 138.786 48.5888C139.733 47.9231 140.672 47.248 141.562 46.5C141.363 46.711 141.163 46.9239 140.955 47.1275L140.314 47.7223C139.87 48.0978 139.423 48.4714 138.964 48.8299C138.05 49.5502 137.101 50.2237 136.14 50.8762C135.174 51.5224 134.2 52.1569 133.202 52.7517C132.207 53.3507 131.203 53.9361 130.17 54.4704Z" fill="#292069"/>
</svg>
